<svg width="102" height="102" viewBox="0 0 102 102" fill="none" xmlns="http://www.w3.org/2000/svg">
<circle cx="51" cy="51" r="51" fill="#FAFAFA"/>
<path d="M72.5833 34.4167H66.4167V28.25H35.5833V34.4167H29.4167C26.025 34.4167 23.25 37.1917 23.25 40.5833V43.6667C23.25 51.5292 29.17 57.9425 36.7858 58.8983C38.7283 63.5233 42.8908 67.0075 47.9167 68.025V77.5833H35.5833V83.75H66.4167V77.5833H54.0833V68.025C59.1092 67.0075 63.2717 63.5233 65.2142 58.8983C72.83 57.9425 78.75 51.5292 78.75 43.6667V40.5833C78.75 37.1917 75.975 34.4167 72.5833 34.4167ZM29.4167 43.6667V40.5833H35.5833V52.3617C32.0067 51.0667 29.4167 47.675 29.4167 43.6667ZM72.5833 43.6667C72.5833 47.675 69.9933 51.0667 66.4167 52.3617V40.5833H72.5833V43.6667Z" fill="#4338CA"/>
</svg>
