<svg width="136" height="200" viewBox="0 0 136 200" fill="none" xmlns="http://www.w3.org/2000/svg">
<g filter="url(#filter0_d)">
<rect x="4" width="128" height="192" rx="8" fill="#6366F1"/>
</g>
<mask id="mask0" mask-type="alpha" maskUnits="userSpaceOnUse" x="4" y="40" width="128" height="152">
<rect x="4" y="40" width="128" height="152" rx="8" fill="#EC4899"/>
</mask>
<g mask="url(#mask0)">
<ellipse cx="60.5" cy="169.042" rx="139.5" ry="80.75" fill="#FAFAFA" fill-opacity="0.7"/>
</g>
<path d="M47.5859 132.586C47.375 134.391 46.707 135.785 45.582 136.77C44.4648 137.746 42.9766 138.234 41.1172 138.234C39.1016 138.234 37.4844 137.512 36.2656 136.066C35.0547 134.621 34.4492 132.688 34.4492 130.266V128.625C34.4492 127.039 34.7305 125.645 35.293 124.441C35.8633 123.238 36.668 122.316 37.707 121.676C38.7461 121.027 39.9492 120.703 41.3164 120.703C43.1289 120.703 44.582 121.211 45.6758 122.227C46.7695 123.234 47.4062 124.633 47.5859 126.422H45.3242C45.1289 125.062 44.7031 124.078 44.0469 123.469C43.3984 122.859 42.4883 122.555 41.3164 122.555C39.8789 122.555 38.75 123.086 37.9297 124.148C37.1172 125.211 36.7109 126.723 36.7109 128.684V130.336C36.7109 132.188 37.0977 133.66 37.8711 134.754C38.6445 135.848 39.7266 136.395 41.1172 136.395C42.3672 136.395 43.3242 136.113 43.9883 135.551C44.6602 134.98 45.1055 133.992 45.3242 132.586H47.5859ZM56.457 127.266C56.1289 127.211 55.7734 127.184 55.3906 127.184C53.9688 127.184 53.0039 127.789 52.4961 129V138H50.3281V125.32H52.4375L52.4727 126.785C53.1836 125.652 54.1914 125.086 55.4961 125.086C55.918 125.086 56.2383 125.141 56.457 125.25V127.266ZM63.4883 138.234C61.7695 138.234 60.3711 137.672 59.293 136.547C58.2148 135.414 57.6758 133.902 57.6758 132.012V131.613C57.6758 130.355 57.9141 129.234 58.3906 128.25C58.875 127.258 59.5469 126.484 60.4062 125.93C61.2734 125.367 62.2109 125.086 63.2188 125.086C64.8672 125.086 66.1484 125.629 67.0625 126.715C67.9766 127.801 68.4336 129.355 68.4336 131.379V132.281H59.8438C59.875 133.531 60.2383 134.543 60.9336 135.316C61.6367 136.082 62.5273 136.465 63.6055 136.465C64.3711 136.465 65.0195 136.309 65.5508 135.996C66.082 135.684 66.5469 135.27 66.9453 134.754L68.2695 135.785C67.207 137.418 65.6133 138.234 63.4883 138.234ZM63.2188 126.867C62.3438 126.867 61.6094 127.188 61.0156 127.828C60.4219 128.461 60.0547 129.352 59.9141 130.5H66.2656V130.336C66.2031 129.234 65.9062 128.383 65.375 127.781C64.8438 127.172 64.125 126.867 63.2188 126.867ZM78.7812 138C78.6562 137.75 78.5547 137.305 78.4766 136.664C77.4688 137.711 76.2656 138.234 74.8672 138.234C73.6172 138.234 72.5898 137.883 71.7852 137.18C70.9883 136.469 70.5898 135.57 70.5898 134.484C70.5898 133.164 71.0898 132.141 72.0898 131.414C73.0977 130.68 74.5117 130.312 76.332 130.312H78.4414V129.316C78.4414 128.559 78.2148 127.957 77.7617 127.512C77.3086 127.059 76.6406 126.832 75.7578 126.832C74.9844 126.832 74.3359 127.027 73.8125 127.418C73.2891 127.809 73.0273 128.281 73.0273 128.836H70.8477C70.8477 128.203 71.0703 127.594 71.5156 127.008C71.9688 126.414 72.5781 125.945 73.3438 125.602C74.1172 125.258 74.9648 125.086 75.8867 125.086C77.3477 125.086 78.4922 125.453 79.3203 126.188C80.1484 126.914 80.5781 127.918 80.6094 129.199V135.035C80.6094 136.199 80.7578 137.125 81.0547 137.812V138H78.7812ZM75.1836 136.348C75.8633 136.348 76.5078 136.172 77.1172 135.82C77.7266 135.469 78.168 135.012 78.4414 134.449V131.848H76.7422C74.0859 131.848 72.7578 132.625 72.7578 134.18C72.7578 134.859 72.9844 135.391 73.4375 135.773C73.8906 136.156 74.4727 136.348 75.1836 136.348ZM86.9492 122.25V125.32H89.3164V126.996H86.9492V134.859C86.9492 135.367 87.0547 135.75 87.2656 136.008C87.4766 136.258 87.8359 136.383 88.3438 136.383C88.5938 136.383 88.9375 136.336 89.375 136.242V138C88.8047 138.156 88.25 138.234 87.7109 138.234C86.7422 138.234 86.0117 137.941 85.5195 137.355C85.0273 136.77 84.7812 135.938 84.7812 134.859V126.996H82.4727V125.32H84.7812V122.25H86.9492ZM97.1211 138.234C95.4023 138.234 94.0039 137.672 92.9258 136.547C91.8477 135.414 91.3086 133.902 91.3086 132.012V131.613C91.3086 130.355 91.5469 129.234 92.0234 128.25C92.5078 127.258 93.1797 126.484 94.0391 125.93C94.9062 125.367 95.8438 125.086 96.8516 125.086C98.5 125.086 99.7812 125.629 100.695 126.715C101.609 127.801 102.066 129.355 102.066 131.379V132.281H93.4766C93.5078 133.531 93.8711 134.543 94.5664 135.316C95.2695 136.082 96.1602 136.465 97.2383 136.465C98.0039 136.465 98.6523 136.309 99.1836 135.996C99.7148 135.684 100.18 135.27 100.578 134.754L101.902 135.785C100.84 137.418 99.2461 138.234 97.1211 138.234ZM96.8516 126.867C95.9766 126.867 95.2422 127.188 94.6484 127.828C94.0547 128.461 93.6875 129.352 93.5469 130.5H99.8984V130.336C99.8359 129.234 99.5391 128.383 99.0078 127.781C98.4766 127.172 97.7578 126.867 96.8516 126.867ZM37.1914 166V148.938H42.0078C43.4922 148.938 44.8047 149.266 45.9453 149.922C47.0859 150.578 47.9648 151.512 48.582 152.723C49.207 153.934 49.5234 155.324 49.5312 156.895V157.984C49.5312 159.594 49.2188 161.004 48.5938 162.215C47.9766 163.426 47.0898 164.355 45.9336 165.004C44.7852 165.652 43.4453 165.984 41.9141 166H37.1914ZM39.4414 150.789V164.16H41.8086C43.543 164.16 44.8906 163.621 45.8516 162.543C46.8203 161.465 47.3047 159.93 47.3047 157.938V156.941C47.3047 155.004 46.8477 153.5 45.9336 152.43C45.0273 151.352 43.7383 150.805 42.0664 150.789H39.4414ZM57.8633 166.234C56.1445 166.234 54.7461 165.672 53.668 164.547C52.5898 163.414 52.0508 161.902 52.0508 160.012V159.613C52.0508 158.355 52.2891 157.234 52.7656 156.25C53.25 155.258 53.9219 154.484 54.7812 153.93C55.6484 153.367 56.5859 153.086 57.5938 153.086C59.2422 153.086 60.5234 153.629 61.4375 154.715C62.3516 155.801 62.8086 157.355 62.8086 159.379V160.281H54.2188C54.25 161.531 54.6133 162.543 55.3086 163.316C56.0117 164.082 56.9023 164.465 57.9805 164.465C58.7461 164.465 59.3945 164.309 59.9258 163.996C60.457 163.684 60.9219 163.27 61.3203 162.754L62.6445 163.785C61.582 165.418 59.9883 166.234 57.8633 166.234ZM57.5938 154.867C56.7188 154.867 55.9844 155.188 55.3906 155.828C54.7969 156.461 54.4297 157.352 54.2891 158.5H60.6406V158.336C60.5781 157.234 60.2812 156.383 59.75 155.781C59.2188 155.172 58.5 154.867 57.5938 154.867ZM70.4141 164.465C71.1875 164.465 71.8633 164.23 72.4414 163.762C73.0195 163.293 73.3398 162.707 73.4023 162.004H75.4531C75.4141 162.73 75.1641 163.422 74.7031 164.078C74.2422 164.734 73.625 165.258 72.8516 165.648C72.0859 166.039 71.2734 166.234 70.4141 166.234C68.6875 166.234 67.3125 165.66 66.2891 164.512C65.2734 163.355 64.7656 161.777 64.7656 159.777V159.414C64.7656 158.18 64.9922 157.082 65.4453 156.121C65.8984 155.16 66.5469 154.414 67.3906 153.883C68.2422 153.352 69.2461 153.086 70.4023 153.086C71.8242 153.086 73.0039 153.512 73.9414 154.363C74.8867 155.215 75.3906 156.32 75.4531 157.68H73.4023C73.3398 156.859 73.0273 156.188 72.4648 155.664C71.9102 155.133 71.2227 154.867 70.4023 154.867C69.3008 154.867 68.4453 155.266 67.8359 156.062C67.2344 156.852 66.9336 157.996 66.9336 159.496V159.906C66.9336 161.367 67.2344 162.492 67.8359 163.281C68.4375 164.07 69.2969 164.465 70.4141 164.465ZM81.4297 160.129L80.0703 161.547V166H77.9023V148H80.0703V158.887L81.2305 157.492L85.1797 153.32H87.8164L82.8828 158.617L88.3906 166H85.8477L81.4297 160.129ZM97.4375 162.637C97.4375 162.051 97.2148 161.598 96.7695 161.277C96.332 160.949 95.5625 160.668 94.4609 160.434C93.3672 160.199 92.4961 159.918 91.8477 159.59C91.207 159.262 90.7305 158.871 90.418 158.418C90.1133 157.965 89.9609 157.426 89.9609 156.801C89.9609 155.762 90.3984 154.883 91.2734 154.164C92.1562 153.445 93.2812 153.086 94.6484 153.086C96.0859 153.086 97.25 153.457 98.1406 154.199C99.0391 154.941 99.4883 155.891 99.4883 157.047H97.3086C97.3086 156.453 97.0547 155.941 96.5469 155.512C96.0469 155.082 95.4141 154.867 94.6484 154.867C93.8594 154.867 93.2422 155.039 92.7969 155.383C92.3516 155.727 92.1289 156.176 92.1289 156.73C92.1289 157.254 92.3359 157.648 92.75 157.914C93.1641 158.18 93.9102 158.434 94.9883 158.676C96.0742 158.918 96.9531 159.207 97.625 159.543C98.2969 159.879 98.793 160.285 99.1133 160.762C99.4414 161.23 99.6055 161.805 99.6055 162.484C99.6055 163.617 99.1523 164.527 98.2461 165.215C97.3398 165.895 96.1641 166.234 94.7188 166.234C93.7031 166.234 92.8047 166.055 92.0234 165.695C91.2422 165.336 90.6289 164.836 90.1836 164.195C89.7461 163.547 89.5273 162.848 89.5273 162.098H91.6953C91.7344 162.824 92.0234 163.402 92.5625 163.832C93.1094 164.254 93.8281 164.465 94.7188 164.465C95.5391 164.465 96.1953 164.301 96.6875 163.973C97.1875 163.637 97.4375 163.191 97.4375 162.637Z" fill="#312E81"/>
<defs>
<filter id="filter0_d" x="0" y="0" width="136" height="200" filterUnits="userSpaceOnUse" color-interpolation-filters="sRGB">
<feFlood flood-opacity="0" result="BackgroundImageFix"/>
<feColorMatrix in="SourceAlpha" type="matrix" values="0 0 0 0 0 0 0 0 0 0 0 0 0 0 0 0 0 0 127 0" result="hardAlpha"/>
<feOffset dy="4"/>
<feGaussianBlur stdDeviation="2"/>
<feColorMatrix type="matrix" values="0 0 0 0 0 0 0 0 0 0 0 0 0 0 0 0 0 0 0.25 0"/>
<feBlend mode="normal" in2="BackgroundImageFix" result="effect1_dropShadow"/>
<feBlend mode="normal" in="SourceGraphic" in2="effect1_dropShadow" result="shape"/>
</filter>
</defs>
</svg>
