<svg width="136" height="200" viewBox="0 0 136 200" fill="none" xmlns="http://www.w3.org/2000/svg">
<g filter="url(#filter0_d)">
<rect x="4" width="128" height="192" rx="8" fill="#F59E0B"/>
</g>
<mask id="mask0" mask-type="alpha" maskUnits="userSpaceOnUse" x="4" y="0" width="128" height="192">
<rect x="4" width="128" height="192" rx="8" fill="#6366F1"/>
</mask>
<g mask="url(#mask0)">
<rect x="-68" y="135.882" width="178" height="170.303" rx="16" transform="rotate(-32.5928 -68 135.882)" fill="#FAFAFA" fill-opacity="0.7"/>
</g>
<path d="M57.582 141H55.3203V133.113H46.7188V141H44.4688V123.938H46.7188V131.273H55.3203V123.938H57.582V141ZM60.6641 134.543C60.6641 133.301 60.9062 132.184 61.3906 131.191C61.8828 130.199 62.5625 129.434 63.4297 128.895C64.3047 128.355 65.3008 128.086 66.418 128.086C68.1445 128.086 69.5391 128.684 70.6016 129.879C71.6719 131.074 72.207 132.664 72.207 134.648V134.801C72.207 136.035 71.9688 137.145 71.4922 138.129C71.0234 139.105 70.3477 139.867 69.4648 140.414C68.5898 140.961 67.582 141.234 66.4414 141.234C64.7227 141.234 63.3281 140.637 62.2578 139.441C61.1953 138.246 60.6641 136.664 60.6641 134.695V134.543ZM62.8438 134.801C62.8438 136.207 63.168 137.336 63.8164 138.188C64.4727 139.039 65.3477 139.465 66.4414 139.465C67.543 139.465 68.418 139.035 69.0664 138.176C69.7148 137.309 70.0391 136.098 70.0391 134.543C70.0391 133.152 69.707 132.027 69.043 131.168C68.3867 130.301 67.5117 129.867 66.418 129.867C65.3477 129.867 64.4844 130.293 63.8281 131.145C63.1719 131.996 62.8438 133.215 62.8438 134.801ZM82.3086 137.637C82.3086 137.051 82.0859 136.598 81.6406 136.277C81.2031 135.949 80.4336 135.668 79.332 135.434C78.2383 135.199 77.3672 134.918 76.7188 134.59C76.0781 134.262 75.6016 133.871 75.2891 133.418C74.9844 132.965 74.832 132.426 74.832 131.801C74.832 130.762 75.2695 129.883 76.1445 129.164C77.0273 128.445 78.1523 128.086 79.5195 128.086C80.957 128.086 82.1211 128.457 83.0117 129.199C83.9102 129.941 84.3594 130.891 84.3594 132.047H82.1797C82.1797 131.453 81.9258 130.941 81.418 130.512C80.918 130.082 80.2852 129.867 79.5195 129.867C78.7305 129.867 78.1133 130.039 77.668 130.383C77.2227 130.727 77 131.176 77 131.73C77 132.254 77.207 132.648 77.6211 132.914C78.0352 133.18 78.7812 133.434 79.8594 133.676C80.9453 133.918 81.8242 134.207 82.4961 134.543C83.168 134.879 83.6641 135.285 83.9844 135.762C84.3125 136.23 84.4766 136.805 84.4766 137.484C84.4766 138.617 84.0234 139.527 83.1172 140.215C82.2109 140.895 81.0352 141.234 79.5898 141.234C78.5742 141.234 77.6758 141.055 76.8945 140.695C76.1133 140.336 75.5 139.836 75.0547 139.195C74.6172 138.547 74.3984 137.848 74.3984 137.098H76.5664C76.6055 137.824 76.8945 138.402 77.4336 138.832C77.9805 139.254 78.6992 139.465 79.5898 139.465C80.4102 139.465 81.0664 139.301 81.5586 138.973C82.0586 138.637 82.3086 138.191 82.3086 137.637ZM90.2422 125.25V128.32H92.6094V129.996H90.2422V137.859C90.2422 138.367 90.3477 138.75 90.5586 139.008C90.7695 139.258 91.1289 139.383 91.6367 139.383C91.8867 139.383 92.2305 139.336 92.668 139.242V141C92.0977 141.156 91.543 141.234 91.0039 141.234C90.0352 141.234 89.3047 140.941 88.8125 140.355C88.3203 139.77 88.0742 138.938 88.0742 137.859V129.996H85.7656V128.32H88.0742V125.25H90.2422ZM44.7969 166.762C44.2188 167.59 43.4102 168.211 42.3711 168.625C41.3398 169.031 40.1367 169.234 38.7617 169.234C37.3711 169.234 36.1367 168.91 35.0586 168.262C33.9805 167.605 33.1445 166.676 32.5508 165.473C31.9648 164.27 31.6641 162.875 31.6484 161.289V159.801C31.6484 157.23 32.2461 155.238 33.4414 153.824C34.6445 152.41 36.332 151.703 38.5039 151.703C40.2852 151.703 41.7188 152.16 42.8047 153.074C43.8906 153.98 44.5547 155.27 44.7969 156.941H42.5469C42.125 154.684 40.7812 153.555 38.5156 153.555C37.0078 153.555 35.8633 154.086 35.082 155.148C34.3086 156.203 33.918 157.734 33.9102 159.742V161.137C33.9102 163.051 34.3477 164.574 35.2227 165.707C36.0977 166.832 37.2812 167.395 38.7734 167.395C39.6172 167.395 40.3555 167.301 40.9883 167.113C41.6211 166.926 42.1445 166.609 42.5586 166.164V162.332H38.6094V160.504H44.7969V166.762ZM56.0469 169C55.9219 168.75 55.8203 168.305 55.7422 167.664C54.7344 168.711 53.5312 169.234 52.1328 169.234C50.8828 169.234 49.8555 168.883 49.0508 168.18C48.2539 167.469 47.8555 166.57 47.8555 165.484C47.8555 164.164 48.3555 163.141 49.3555 162.414C50.3633 161.68 51.7773 161.312 53.5977 161.312H55.707V160.316C55.707 159.559 55.4805 158.957 55.0273 158.512C54.5742 158.059 53.9062 157.832 53.0234 157.832C52.25 157.832 51.6016 158.027 51.0781 158.418C50.5547 158.809 50.293 159.281 50.293 159.836H48.1133C48.1133 159.203 48.3359 158.594 48.7812 158.008C49.2344 157.414 49.8438 156.945 50.6094 156.602C51.3828 156.258 52.2305 156.086 53.1523 156.086C54.6133 156.086 55.7578 156.453 56.5859 157.188C57.4141 157.914 57.8438 158.918 57.875 160.199V166.035C57.875 167.199 58.0234 168.125 58.3203 168.812V169H56.0469ZM52.4492 167.348C53.1289 167.348 53.7734 167.172 54.3828 166.82C54.9922 166.469 55.4336 166.012 55.707 165.449V162.848H54.0078C51.3516 162.848 50.0234 163.625 50.0234 165.18C50.0234 165.859 50.25 166.391 50.7031 166.773C51.1562 167.156 51.7383 167.348 52.4492 167.348ZM63.3125 156.32L63.3711 157.727C64.3008 156.633 65.5547 156.086 67.1328 156.086C68.9062 156.086 70.1133 156.766 70.7539 158.125C71.1758 157.516 71.7227 157.023 72.3945 156.648C73.0742 156.273 73.875 156.086 74.7969 156.086C77.5781 156.086 78.9922 157.559 79.0391 160.504V169H76.8711V160.633C76.8711 159.727 76.6641 159.051 76.25 158.605C75.8359 158.152 75.1406 157.926 74.1641 157.926C73.3594 157.926 72.6914 158.168 72.1602 158.652C71.6289 159.129 71.3203 159.773 71.2344 160.586V169H69.0547V160.691C69.0547 158.848 68.1523 157.926 66.3477 157.926C64.9258 157.926 63.9531 158.531 63.4297 159.742V169H61.2617V156.32H63.3125ZM87.582 169.234C85.8633 169.234 84.4648 168.672 83.3867 167.547C82.3086 166.414 81.7695 164.902 81.7695 163.012V162.613C81.7695 161.355 82.0078 160.234 82.4844 159.25C82.9688 158.258 83.6406 157.484 84.5 156.93C85.3672 156.367 86.3047 156.086 87.3125 156.086C88.9609 156.086 90.2422 156.629 91.1562 157.715C92.0703 158.801 92.5273 160.355 92.5273 162.379V163.281H83.9375C83.9688 164.531 84.332 165.543 85.0273 166.316C85.7305 167.082 86.6211 167.465 87.6992 167.465C88.4648 167.465 89.1133 167.309 89.6445 166.996C90.1758 166.684 90.6406 166.27 91.0391 165.754L92.3633 166.785C91.3008 168.418 89.707 169.234 87.582 169.234ZM87.3125 157.867C86.4375 157.867 85.7031 158.188 85.1094 158.828C84.5156 159.461 84.1484 160.352 84.0078 161.5H90.3594V161.336C90.2969 160.234 90 159.383 89.4688 158.781C88.9375 158.172 88.2188 157.867 87.3125 157.867ZM102.43 165.637C102.43 165.051 102.207 164.598 101.762 164.277C101.324 163.949 100.555 163.668 99.4531 163.434C98.3594 163.199 97.4883 162.918 96.8398 162.59C96.1992 162.262 95.7227 161.871 95.4102 161.418C95.1055 160.965 94.9531 160.426 94.9531 159.801C94.9531 158.762 95.3906 157.883 96.2656 157.164C97.1484 156.445 98.2734 156.086 99.6406 156.086C101.078 156.086 102.242 156.457 103.133 157.199C104.031 157.941 104.48 158.891 104.48 160.047H102.301C102.301 159.453 102.047 158.941 101.539 158.512C101.039 158.082 100.406 157.867 99.6406 157.867C98.8516 157.867 98.2344 158.039 97.7891 158.383C97.3438 158.727 97.1211 159.176 97.1211 159.73C97.1211 160.254 97.3281 160.648 97.7422 160.914C98.1562 161.18 98.9023 161.434 99.9805 161.676C101.066 161.918 101.945 162.207 102.617 162.543C103.289 162.879 103.785 163.285 104.105 163.762C104.434 164.23 104.598 164.805 104.598 165.484C104.598 166.617 104.145 167.527 103.238 168.215C102.332 168.895 101.156 169.234 99.7109 169.234C98.6953 169.234 97.7969 169.055 97.0156 168.695C96.2344 168.336 95.6211 167.836 95.1758 167.195C94.7383 166.547 94.5195 165.848 94.5195 165.098H96.6875C96.7266 165.824 97.0156 166.402 97.5547 166.832C98.1016 167.254 98.8203 167.465 99.7109 167.465C100.531 167.465 101.188 167.301 101.68 166.973C102.18 166.637 102.43 166.191 102.43 165.637Z" fill="#78350F"/>
<defs>
<filter id="filter0_d" x="0" y="0" width="136" height="200" filterUnits="userSpaceOnUse" color-interpolation-filters="sRGB">
<feFlood flood-opacity="0" result="BackgroundImageFix"/>
<feColorMatrix in="SourceAlpha" type="matrix" values="0 0 0 0 0 0 0 0 0 0 0 0 0 0 0 0 0 0 127 0" result="hardAlpha"/>
<feOffset dy="4"/>
<feGaussianBlur stdDeviation="2"/>
<feColorMatrix type="matrix" values="0 0 0 0 0 0 0 0 0 0 0 0 0 0 0 0 0 0 0.25 0"/>
<feBlend mode="normal" in2="BackgroundImageFix" result="effect1_dropShadow"/>
<feBlend mode="normal" in="SourceGraphic" in2="effect1_dropShadow" result="shape"/>
</filter>
</defs>
</svg>
