<svg width="136" height="200" viewBox="0 0 136 200" fill="none" xmlns="http://www.w3.org/2000/svg">
<g filter="url(#filter0_d)">
<rect x="4" width="128" height="192" rx="8" fill="#76E235"/>
</g>
<path fill-rule="evenodd" clip-rule="evenodd" d="M132 27C113.226 71.7083 74.3785 102.413 29.5 102.413C20.7351 102.413 12.2002 101.242 4 99.024L4 183.583C4 188.002 7.58172 191.583 12 191.583H124C128.418 191.583 132 188.002 132 183.583V27Z" fill="#FAFAFA" fill-opacity="0.7"/>
<path d="M43.4844 145H41.2344V127.938H43.4844V145ZM49.3203 132.32L49.3906 133.914C50.3594 132.695 51.625 132.086 53.1875 132.086C55.8672 132.086 57.2188 133.598 57.2422 136.621V145H55.0742V136.609C55.0664 135.695 54.8555 135.02 54.4414 134.582C54.0352 134.145 53.3984 133.926 52.5312 133.926C51.8281 133.926 51.2109 134.113 50.6797 134.488C50.1484 134.863 49.7344 135.355 49.4375 135.965V145H47.2695V132.32H49.3203ZM64.6953 142.059L67.8359 132.32H70.0508L65.5039 145H63.8516L59.2578 132.32H61.4727L64.6953 142.059ZM74.4922 145H72.3242V132.32H74.4922V145ZM72.1484 128.957C72.1484 128.605 72.2539 128.309 72.4648 128.066C72.6836 127.824 73.0039 127.703 73.4258 127.703C73.8477 127.703 74.168 127.824 74.3867 128.066C74.6055 128.309 74.7148 128.605 74.7148 128.957C74.7148 129.309 74.6055 129.602 74.3867 129.836C74.168 130.07 73.8477 130.188 73.4258 130.188C73.0039 130.188 72.6836 130.07 72.4648 129.836C72.2539 129.602 72.1484 129.309 72.1484 128.957ZM80.9141 129.25V132.32H83.2812V133.996H80.9141V141.859C80.9141 142.367 81.0195 142.75 81.2305 143.008C81.4414 143.258 81.8008 143.383 82.3086 143.383C82.5586 143.383 82.9023 143.336 83.3398 143.242V145C82.7695 145.156 82.2148 145.234 81.6758 145.234C80.707 145.234 79.9766 144.941 79.4844 144.355C78.9922 143.77 78.7461 142.938 78.7461 141.859V133.996H76.4375V132.32H78.7461V129.25H80.9141ZM91.0859 145.234C89.3672 145.234 87.9688 144.672 86.8906 143.547C85.8125 142.414 85.2734 140.902 85.2734 139.012V138.613C85.2734 137.355 85.5117 136.234 85.9883 135.25C86.4727 134.258 87.1445 133.484 88.0039 132.93C88.8711 132.367 89.8086 132.086 90.8164 132.086C92.4648 132.086 93.7461 132.629 94.6602 133.715C95.5742 134.801 96.0312 136.355 96.0312 138.379V139.281H87.4414C87.4727 140.531 87.8359 141.543 88.5312 142.316C89.2344 143.082 90.125 143.465 91.2031 143.465C91.9688 143.465 92.6172 143.309 93.1484 142.996C93.6797 142.684 94.1445 142.27 94.543 141.754L95.8672 142.785C94.8047 144.418 93.2109 145.234 91.0859 145.234ZM90.8164 133.867C89.9414 133.867 89.207 134.188 88.6133 134.828C88.0195 135.461 87.6523 136.352 87.5117 137.5H93.8633V137.336C93.8008 136.234 93.5039 135.383 92.9727 134.781C92.4414 134.172 91.7227 133.867 90.8164 133.867ZM36.8867 165.465H29.7266V173H27.4766V155.938H38.0469V157.789H29.7266V163.625H36.8867V165.465ZM46.2266 162.266C45.8984 162.211 45.543 162.184 45.1602 162.184C43.7383 162.184 42.7734 162.789 42.2656 164V173H40.0977V160.32H42.207L42.2422 161.785C42.9531 160.652 43.9609 160.086 45.2656 160.086C45.6875 160.086 46.0078 160.141 46.2266 160.25V162.266ZM50.5859 173H48.418V160.32H50.5859V173ZM48.2422 156.957C48.2422 156.605 48.3477 156.309 48.5586 156.066C48.7773 155.824 49.0977 155.703 49.5195 155.703C49.9414 155.703 50.2617 155.824 50.4805 156.066C50.6992 156.309 50.8086 156.605 50.8086 156.957C50.8086 157.309 50.6992 157.602 50.4805 157.836C50.2617 158.07 49.9414 158.188 49.5195 158.188C49.0977 158.188 48.7773 158.07 48.5586 157.836C48.3477 157.602 48.2422 157.309 48.2422 156.957ZM59.3281 173.234C57.6094 173.234 56.2109 172.672 55.1328 171.547C54.0547 170.414 53.5156 168.902 53.5156 167.012V166.613C53.5156 165.355 53.7539 164.234 54.2305 163.25C54.7148 162.258 55.3867 161.484 56.2461 160.93C57.1133 160.367 58.0508 160.086 59.0586 160.086C60.707 160.086 61.9883 160.629 62.9023 161.715C63.8164 162.801 64.2734 164.355 64.2734 166.379V167.281H55.6836C55.7148 168.531 56.0781 169.543 56.7734 170.316C57.4766 171.082 58.3672 171.465 59.4453 171.465C60.2109 171.465 60.8594 171.309 61.3906 170.996C61.9219 170.684 62.3867 170.27 62.7852 169.754L64.1094 170.785C63.0469 172.418 61.4531 173.234 59.3281 173.234ZM59.0586 161.867C58.1836 161.867 57.4492 162.188 56.8555 162.828C56.2617 163.461 55.8945 164.352 55.7539 165.5H62.1055V165.336C62.043 164.234 61.7461 163.383 61.2148 162.781C60.6836 162.172 59.9648 161.867 59.0586 161.867ZM68.8438 160.32L68.9141 161.914C69.8828 160.695 71.1484 160.086 72.7109 160.086C75.3906 160.086 76.7422 161.598 76.7656 164.621V173H74.5977V164.609C74.5898 163.695 74.3789 163.02 73.9648 162.582C73.5586 162.145 72.9219 161.926 72.0547 161.926C71.3516 161.926 70.7344 162.113 70.2031 162.488C69.6719 162.863 69.2578 163.355 68.9609 163.965V173H66.793V160.32H68.8438ZM79.5078 166.555C79.5078 164.609 79.9688 163.047 80.8906 161.867C81.8125 160.68 83.0195 160.086 84.5117 160.086C85.9961 160.086 87.1719 160.594 88.0391 161.609V155H90.207V173H88.2148L88.1094 171.641C87.2422 172.703 86.0352 173.234 84.4883 173.234C83.0195 173.234 81.8203 172.633 80.8906 171.43C79.9688 170.227 79.5078 168.656 79.5078 166.719V166.555ZM81.6758 166.801C81.6758 168.238 81.9727 169.363 82.5664 170.176C83.1602 170.988 83.9805 171.395 85.0273 171.395C86.4023 171.395 87.4062 170.777 88.0391 169.543V163.719C87.3906 162.523 86.3945 161.926 85.0508 161.926C83.9883 161.926 83.1602 162.336 82.5664 163.156C81.9727 163.977 81.6758 165.191 81.6758 166.801ZM100.965 169.637C100.965 169.051 100.742 168.598 100.297 168.277C99.8594 167.949 99.0898 167.668 97.9883 167.434C96.8945 167.199 96.0234 166.918 95.375 166.59C94.7344 166.262 94.2578 165.871 93.9453 165.418C93.6406 164.965 93.4883 164.426 93.4883 163.801C93.4883 162.762 93.9258 161.883 94.8008 161.164C95.6836 160.445 96.8086 160.086 98.1758 160.086C99.6133 160.086 100.777 160.457 101.668 161.199C102.566 161.941 103.016 162.891 103.016 164.047H100.836C100.836 163.453 100.582 162.941 100.074 162.512C99.5742 162.082 98.9414 161.867 98.1758 161.867C97.3867 161.867 96.7695 162.039 96.3242 162.383C95.8789 162.727 95.6562 163.176 95.6562 163.73C95.6562 164.254 95.8633 164.648 96.2773 164.914C96.6914 165.18 97.4375 165.434 98.5156 165.676C99.6016 165.918 100.48 166.207 101.152 166.543C101.824 166.879 102.32 167.285 102.641 167.762C102.969 168.23 103.133 168.805 103.133 169.484C103.133 170.617 102.68 171.527 101.773 172.215C100.867 172.895 99.6914 173.234 98.2461 173.234C97.2305 173.234 96.332 173.055 95.5508 172.695C94.7695 172.336 94.1562 171.836 93.7109 171.195C93.2734 170.547 93.0547 169.848 93.0547 169.098H95.2227C95.2617 169.824 95.5508 170.402 96.0898 170.832C96.6367 171.254 97.3555 171.465 98.2461 171.465C99.0664 171.465 99.7227 171.301 100.215 170.973C100.715 170.637 100.965 170.191 100.965 169.637ZM108.383 168.184H106.426L106.273 155.938H108.547L108.383 168.184ZM106.191 171.91C106.191 171.559 106.297 171.266 106.508 171.031C106.727 170.789 107.047 170.668 107.469 170.668C107.891 170.668 108.211 170.789 108.43 171.031C108.648 171.266 108.758 171.559 108.758 171.91C108.758 172.262 108.648 172.555 108.43 172.789C108.211 173.016 107.891 173.129 107.469 173.129C107.047 173.129 106.727 173.016 106.508 172.789C106.297 172.555 106.191 172.262 106.191 171.91Z" fill="#365314"/>
<defs>
<filter id="filter0_d" x="0" y="0" width="136" height="200" filterUnits="userSpaceOnUse" color-interpolation-filters="sRGB">
<feFlood flood-opacity="0" result="BackgroundImageFix"/>
<feColorMatrix in="SourceAlpha" type="matrix" values="0 0 0 0 0 0 0 0 0 0 0 0 0 0 0 0 0 0 127 0" result="hardAlpha"/>
<feOffset dy="4"/>
<feGaussianBlur stdDeviation="2"/>
<feColorMatrix type="matrix" values="0 0 0 0 0 0 0 0 0 0 0 0 0 0 0 0 0 0 0.25 0"/>
<feBlend mode="normal" in2="BackgroundImageFix" result="effect1_dropShadow"/>
<feBlend mode="normal" in="SourceGraphic" in2="effect1_dropShadow" result="shape"/>
</filter>
</defs>
</svg>
