<svg width="262" height="291" viewBox="0 0 262 291" fill="none" xmlns="http://www.w3.org/2000/svg">
<g filter="url(#filter0_d)">
<rect x="4" y="70.1714" width="176" height="232" rx="24" transform="rotate(-23.497 4 70.1714)" fill="#6366F1"/>
</g>
<mask id="mask0" mask-type="alpha" maskUnits="userSpaceOnUse" x="4" y="0" width="254" height="283">
<rect x="4" y="70.1714" width="176" height="232" rx="24" transform="rotate(-23.497 4 70.1714)" fill="#6366F1"/>
<rect x="4" y="70.1714" width="176" height="232" rx="24" transform="rotate(-23.497 4 70.1714)" stroke="black"/>
</mask>
<g mask="url(#mask0)">
<g filter="url(#filter1_d)">
<path d="M85.1487 288.552L247.021 159.171L274.977 205.441L85.1487 288.552Z" fill="#EC4899"/>
</g>
</g>
<mask id="mask1" mask-type="alpha" maskUnits="userSpaceOnUse" x="4" y="0" width="254" height="283">
<rect x="4" y="70.1714" width="176" height="232" rx="24" transform="rotate(-23.497 4 70.1714)" fill="#6366F1"/>
<rect x="4" y="70.1714" width="176" height="232" rx="24" transform="rotate(-23.497 4 70.1714)" stroke="black"/>
</mask>
<g mask="url(#mask1)">
<path d="M94.7401 281.826L222.163 120.966L256.354 155.361L94.7401 281.826Z" fill="#F59E0B"/>
</g>
<mask id="mask2" mask-type="alpha" maskUnits="userSpaceOnUse" x="4" y="0" width="254" height="283">
<rect x="4" y="70.1714" width="176" height="232" rx="24" transform="rotate(-23.497 4 70.1714)" fill="#6366F1"/>
<rect x="4" y="70.1714" width="176" height="232" rx="24" transform="rotate(-23.497 4 70.1714)" stroke="black"/>
</mask>
<g mask="url(#mask2)">
<path d="M88.9597 290.324L198.382 67.5828L245.077 97.4143L88.9597 290.324Z" fill="#76E235"/>
</g>
<defs>
<filter id="filter0_d" x="0" y="0" width="261.905" height="290.934" filterUnits="userSpaceOnUse" color-interpolation-filters="sRGB">
<feFlood flood-opacity="0" result="BackgroundImageFix"/>
<feColorMatrix in="SourceAlpha" type="matrix" values="0 0 0 0 0 0 0 0 0 0 0 0 0 0 0 0 0 0 127 0"/>
<feOffset dy="4"/>
<feGaussianBlur stdDeviation="2"/>
<feColorMatrix type="matrix" values="0 0 0 0 0 0 0 0 0 0 0 0 0 0 0 0 0 0 0.25 0"/>
<feBlend mode="normal" in2="BackgroundImageFix" result="effect1_dropShadow"/>
<feBlend mode="normal" in="SourceGraphic" in2="effect1_dropShadow" result="shape"/>
</filter>
<filter id="filter1_d" x="71.1709" y="159.171" width="203.806" height="152.516" filterUnits="userSpaceOnUse" color-interpolation-filters="sRGB">
<feFlood flood-opacity="0" result="BackgroundImageFix"/>
<feColorMatrix in="SourceAlpha" type="matrix" values="0 0 0 0 0 0 0 0 0 0 0 0 0 0 0 0 0 0 127 0"/>
<feOffset/>
<feColorMatrix type="matrix" values="0 0 0 0 0 0 0 0 0 0 0 0 0 0 0 0 0 0 0.25 0"/>
<feBlend mode="normal" in2="BackgroundImageFix" result="effect1_dropShadow"/>
<feBlend mode="normal" in="SourceGraphic" in2="effect1_dropShadow" result="shape"/>
</filter>
</defs>
</svg>
