<svg width="144" height="208" viewBox="0 0 144 208" fill="none" xmlns="http://www.w3.org/2000/svg">
<g filter="url(#filter0_d)">
<rect x="8" width="128" height="192" rx="8" fill="#EC4899"/>
</g>
<mask id="mask0" mask-type="alpha" maskUnits="userSpaceOnUse" x="8" y="0" width="128" height="192">
<rect x="8" width="128" height="192" rx="8" fill="#6366F1"/>
</mask>
<g mask="url(#mask0)">
<rect x="-38" y="113.756" width="208" height="139" transform="rotate(-11.2999 -38 113.756)" fill="#FAFAFA" fill-opacity="0.7"/>
</g>
<path d="M36.668 134.32V141H34.418V123.938H40.7109C42.5781 123.938 44.0391 124.414 45.0938 125.367C46.1562 126.32 46.6875 127.582 46.6875 129.152C46.6875 130.809 46.168 132.086 45.1289 132.984C44.0977 133.875 42.6172 134.32 40.6875 134.32H36.668ZM36.668 132.48H40.7109C41.9141 132.48 42.8359 132.199 43.4766 131.637C44.1172 131.066 44.4375 130.246 44.4375 129.176C44.4375 128.16 44.1172 127.348 43.4766 126.738C42.8359 126.129 41.957 125.812 40.8398 125.789H36.668V132.48ZM57.0469 139.746C56.2031 140.738 54.9648 141.234 53.332 141.234C51.9805 141.234 50.9492 140.844 50.2383 140.062C49.5352 139.273 49.1797 138.109 49.1719 136.57V128.32H51.3398V136.512C51.3398 138.434 52.1211 139.395 53.6836 139.395C55.3398 139.395 56.4414 138.777 56.9883 137.543V128.32H59.1562V141H57.0938L57.0469 139.746ZM73.1953 134.801C73.1953 136.738 72.75 138.297 71.8594 139.477C70.9688 140.648 69.7734 141.234 68.2734 141.234C66.6719 141.234 65.4336 140.668 64.5586 139.535L64.4531 141H62.4609V123H64.6289V129.715C65.5039 128.629 66.7109 128.086 68.25 128.086C69.7891 128.086 70.9961 128.668 71.8711 129.832C72.7539 130.996 73.1953 132.59 73.1953 134.613V134.801ZM71.0273 134.555C71.0273 133.078 70.7422 131.938 70.1719 131.133C69.6016 130.328 68.7812 129.926 67.7109 129.926C66.2812 129.926 65.2539 130.59 64.6289 131.918V137.402C65.293 138.73 66.3281 139.395 67.7344 139.395C68.7734 139.395 69.582 138.992 70.1602 138.188C70.7383 137.383 71.0273 136.172 71.0273 134.555ZM78.293 141H76.125V123H78.293V141ZM84.1289 141H81.9609V128.32H84.1289V141ZM81.7852 124.957C81.7852 124.605 81.8906 124.309 82.1016 124.066C82.3203 123.824 82.6406 123.703 83.0625 123.703C83.4844 123.703 83.8047 123.824 84.0234 124.066C84.2422 124.309 84.3516 124.605 84.3516 124.957C84.3516 125.309 84.2422 125.602 84.0234 125.836C83.8047 126.07 83.4844 126.188 83.0625 126.188C82.6406 126.188 82.3203 126.07 82.1016 125.836C81.8906 125.602 81.7852 125.309 81.7852 124.957ZM94.9922 137.637C94.9922 137.051 94.7695 136.598 94.3242 136.277C93.8867 135.949 93.1172 135.668 92.0156 135.434C90.9219 135.199 90.0508 134.918 89.4023 134.59C88.7617 134.262 88.2852 133.871 87.9727 133.418C87.668 132.965 87.5156 132.426 87.5156 131.801C87.5156 130.762 87.9531 129.883 88.8281 129.164C89.7109 128.445 90.8359 128.086 92.2031 128.086C93.6406 128.086 94.8047 128.457 95.6953 129.199C96.5938 129.941 97.043 130.891 97.043 132.047H94.8633C94.8633 131.453 94.6094 130.941 94.1016 130.512C93.6016 130.082 92.9688 129.867 92.2031 129.867C91.4141 129.867 90.7969 130.039 90.3516 130.383C89.9062 130.727 89.6836 131.176 89.6836 131.73C89.6836 132.254 89.8906 132.648 90.3047 132.914C90.7188 133.18 91.4648 133.434 92.543 133.676C93.6289 133.918 94.5078 134.207 95.1797 134.543C95.8516 134.879 96.3477 135.285 96.668 135.762C96.9961 136.23 97.1602 136.805 97.1602 137.484C97.1602 138.617 96.707 139.527 95.8008 140.215C94.8945 140.895 93.7188 141.234 92.2734 141.234C91.2578 141.234 90.3594 141.055 89.5781 140.695C88.7969 140.336 88.1836 139.836 87.7383 139.195C87.3008 138.547 87.082 137.848 87.082 137.098H89.25C89.2891 137.824 89.5781 138.402 90.1172 138.832C90.6641 139.254 91.3828 139.465 92.2734 139.465C93.0938 139.465 93.75 139.301 94.2422 138.973C94.7422 138.637 94.9922 138.191 94.9922 137.637ZM102.152 129.855C103.113 128.676 104.363 128.086 105.902 128.086C108.582 128.086 109.934 129.598 109.957 132.621V141H107.789V132.609C107.781 131.695 107.57 131.02 107.156 130.582C106.75 130.145 106.113 129.926 105.246 129.926C104.543 129.926 103.926 130.113 103.395 130.488C102.863 130.863 102.449 131.355 102.152 131.965V141H99.9844V123H102.152V129.855ZM41.1914 169V151.938H46.0078C47.4922 151.938 48.8047 152.266 49.9453 152.922C51.0859 153.578 51.9648 154.512 52.582 155.723C53.207 156.934 53.5234 158.324 53.5312 159.895V160.984C53.5312 162.594 53.2188 164.004 52.5938 165.215C51.9766 166.426 51.0898 167.355 49.9336 168.004C48.7852 168.652 47.4453 168.984 45.9141 169H41.1914ZM43.4414 153.789V167.16H45.8086C47.543 167.16 48.8906 166.621 49.8516 165.543C50.8203 164.465 51.3047 162.93 51.3047 160.938V159.941C51.3047 158.004 50.8477 156.5 49.9336 155.43C49.0273 154.352 47.7383 153.805 46.0664 153.789H43.4414ZM61.8633 169.234C60.1445 169.234 58.7461 168.672 57.668 167.547C56.5898 166.414 56.0508 164.902 56.0508 163.012V162.613C56.0508 161.355 56.2891 160.234 56.7656 159.25C57.25 158.258 57.9219 157.484 58.7812 156.93C59.6484 156.367 60.5859 156.086 61.5938 156.086C63.2422 156.086 64.5234 156.629 65.4375 157.715C66.3516 158.801 66.8086 160.355 66.8086 162.379V163.281H58.2188C58.25 164.531 58.6133 165.543 59.3086 166.316C60.0117 167.082 60.9023 167.465 61.9805 167.465C62.7461 167.465 63.3945 167.309 63.9258 166.996C64.457 166.684 64.9219 166.27 65.3203 165.754L66.6445 166.785C65.582 168.418 63.9883 169.234 61.8633 169.234ZM61.5938 157.867C60.7188 157.867 59.9844 158.188 59.3906 158.828C58.7969 159.461 58.4297 160.352 58.2891 161.5H64.6406V161.336C64.5781 160.234 64.2812 159.383 63.75 158.781C63.2188 158.172 62.5 157.867 61.5938 157.867ZM74.4141 167.465C75.1875 167.465 75.8633 167.23 76.4414 166.762C77.0195 166.293 77.3398 165.707 77.4023 165.004H79.4531C79.4141 165.73 79.1641 166.422 78.7031 167.078C78.2422 167.734 77.625 168.258 76.8516 168.648C76.0859 169.039 75.2734 169.234 74.4141 169.234C72.6875 169.234 71.3125 168.66 70.2891 167.512C69.2734 166.355 68.7656 164.777 68.7656 162.777V162.414C68.7656 161.18 68.9922 160.082 69.4453 159.121C69.8984 158.16 70.5469 157.414 71.3906 156.883C72.2422 156.352 73.2461 156.086 74.4023 156.086C75.8242 156.086 77.0039 156.512 77.9414 157.363C78.8867 158.215 79.3906 159.32 79.4531 160.68H77.4023C77.3398 159.859 77.0273 159.188 76.4648 158.664C75.9102 158.133 75.2227 157.867 74.4023 157.867C73.3008 157.867 72.4453 158.266 71.8359 159.062C71.2344 159.852 70.9336 160.996 70.9336 162.496V162.906C70.9336 164.367 71.2344 165.492 71.8359 166.281C72.4375 167.07 73.2969 167.465 74.4141 167.465ZM85.4297 163.129L84.0703 164.547V169H81.9023V151H84.0703V161.887L85.2305 160.492L89.1797 156.32H91.8164L86.8828 161.617L92.3906 169H89.8477L85.4297 163.129ZM101.438 165.637C101.438 165.051 101.215 164.598 100.77 164.277C100.332 163.949 99.5625 163.668 98.4609 163.434C97.3672 163.199 96.4961 162.918 95.8477 162.59C95.207 162.262 94.7305 161.871 94.418 161.418C94.1133 160.965 93.9609 160.426 93.9609 159.801C93.9609 158.762 94.3984 157.883 95.2734 157.164C96.1562 156.445 97.2812 156.086 98.6484 156.086C100.086 156.086 101.25 156.457 102.141 157.199C103.039 157.941 103.488 158.891 103.488 160.047H101.309C101.309 159.453 101.055 158.941 100.547 158.512C100.047 158.082 99.4141 157.867 98.6484 157.867C97.8594 157.867 97.2422 158.039 96.7969 158.383C96.3516 158.727 96.1289 159.176 96.1289 159.73C96.1289 160.254 96.3359 160.648 96.75 160.914C97.1641 161.18 97.9102 161.434 98.9883 161.676C100.074 161.918 100.953 162.207 101.625 162.543C102.297 162.879 102.793 163.285 103.113 163.762C103.441 164.23 103.605 164.805 103.605 165.484C103.605 166.617 103.152 167.527 102.246 168.215C101.34 168.895 100.164 169.234 98.7188 169.234C97.7031 169.234 96.8047 169.055 96.0234 168.695C95.2422 168.336 94.6289 167.836 94.1836 167.195C93.7461 166.547 93.5273 165.848 93.5273 165.098H95.6953C95.7344 165.824 96.0234 166.402 96.5625 166.832C97.1094 167.254 97.8281 167.465 98.7188 167.465C99.5391 167.465 100.195 167.301 100.688 166.973C101.188 166.637 101.438 166.191 101.438 165.637Z" fill="#831843"/>
<defs>
<filter id="filter0_d" x="4" y="0" width="136" height="200" filterUnits="userSpaceOnUse" color-interpolation-filters="sRGB">
<feFlood flood-opacity="0" result="BackgroundImageFix"/>
<feColorMatrix in="SourceAlpha" type="matrix" values="0 0 0 0 0 0 0 0 0 0 0 0 0 0 0 0 0 0 127 0" result="hardAlpha"/>
<feOffset dy="4"/>
<feGaussianBlur stdDeviation="2"/>
<feColorMatrix type="matrix" values="0 0 0 0 0 0 0 0 0 0 0 0 0 0 0 0 0 0 0.25 0"/>
<feBlend mode="normal" in2="BackgroundImageFix" result="effect1_dropShadow"/>
<feBlend mode="normal" in="SourceGraphic" in2="effect1_dropShadow" result="shape"/>
</filter>
</defs>
</svg>
