<svg width="148" height="145" viewBox="0 0 148 145" fill="none" xmlns="http://www.w3.org/2000/svg">
<g filter="url(#filter0_d)">
<path d="M88.2621 50.5295C73.3157 70.0191 57.1173 91.1287 37.0847 105.748C36.4719 106.195 34.4192 107.022 34.9251 106.456C40.1733 100.576 47.1683 95.8358 53.4072 91.1479C63.3655 83.6651 73.6547 75.7805 84.646 69.8788C99.9693 61.6511 92.1283 74.7094 87.8603 82.1047C77.4797 100.092 98.664 80.7049 102.475 77.962C120.315 65.1235 98.1791 89.4163 97.0512 90.7942C89.8857 99.5482 67.9407 125.434 75.2041 116.762C86.9273 102.765 99.5842 89.6039 112.219 76.4464C113.469 75.1445 117.156 71.182 115.985 72.5564C114.714 74.0484 113.268 75.3807 111.917 76.8001C103.016 86.1515 98.0771 91.3706 89.0657 100.999C83.634 106.803 78.5703 112.97 72.8436 118.479C68.8888 122.284 72.3632 115.398 72.6427 114.741C80.3827 96.5362 89.5318 78.8734 98.4574 61.2398C107.102 44.1618 94.09 61.9218 90.9239 65.9382C79.284 80.7043 65.8559 96.4305 57.3748 113.377C50.5071 127.1 78.4174 91.0837 88.3375 79.4019C93.9913 72.744 111.821 53.7524 104.961 59.1432C94.4426 67.4095 85.6039 80.7586 77.1125 90.8953C69.29 100.234 62.0248 110.773 53.5076 119.515C46.2521 126.962 63.1618 101.047 68.4993 92.1078C75.5393 80.3176 80.2149 72.8051 87.7599 61.6439C89.792 58.6378 91.9937 55.7503 94.0378 52.7523C94.5899 51.9425 96.5118 50.0948 95.5445 50.2263C94.1064 50.4218 93.2478 52.0169 92.1795 53.0049C89.2946 55.6733 86.492 58.431 83.6918 61.1892C74.8743 69.8746 70.3936 74.4734 61.8949 83.5698C60.8249 84.7151 47.5309 99.2899 45.3213 101.606C43.4789 103.536 38.8186 109.2 39.0182 106.531C39.4422 100.865 43.6735 96.1532 46.5266 91.2489C54.9679 76.7394 64.3754 62.8133 74.4005 49.3675C75.8766 47.3877 82.0178 39.3384 84.7967 36.7374C85.7687 35.8276 84.0351 39.3558 83.2398 40.4254C71.2587 56.5384 57.3869 71.4031 43.8648 86.1969C40.6987 89.6607 37.6076 93.2057 34.2219 96.4525C33.7958 96.8612 34.3811 95.2487 34.6739 94.7348C41.6815 82.4409 49.3662 70.4633 57.5255 58.9158C63.9388 49.8394 70.7766 41.068 78.0166 32.6452C78.2473 32.3767 68.5687 45.3828 68.2231 45.831C57.6307 59.5675 46.9898 73.4703 35.4775 86.4495C27.1836 95.8002 38.1908 70.9956 38.6416 69.9293C42.5733 60.6282 46.7065 51.1601 51.6996 42.3704C55.0445 36.4821 50.3934 45.1196 50.218 45.3764C43.4271 55.3216 36.1671 65.0784 28.7727 74.5772C26.6781 77.2679 24.7579 80.0343 27.0651 74.5772C29.8281 68.0421 36.7775 54.2039 39.3447 49.0391C40.8212 46.0687 60.3972 12.6311 42.5841 34.4892C35.148 43.6139 27.9238 56.5087 18.6025 63.8416C14.5619 67.0202 20.4845 53.5805 22.6706 48.9128C28.4702 36.5299 35.2443 24.5471 40.5501 11.9318C40.7561 11.4418 31.3619 25.8206 31.3592 25.8249C23.4281 38.441 14.3246 51.0938 7.9552 64.6246C5.67573 69.467 18.3353 61.4727 22.6706 58.3601C32.8829 51.0281 35.9885 48.081 46.2253 40.2738C46.3002 40.2167 60.591 28.9519 63.8034 28.5025C67.6473 27.9648 62.2278 36.2864 60.2878 39.6675C58.4293 42.9067 46.4405 61.8396 44.5679 64.8267C40.5555 71.2273 37.6502 75.8163 33.9708 82.1047C33.6042 82.7313 32.5075 84.6062 32.9412 84.0245C33.6243 83.1083 34.1441 82.0797 34.7242 81.0943C43.429 66.3058 51.8614 51.3625 60.8402 36.7373C63.3709 32.6153 66.2303 28.6929 68.5746 24.4609C71.3453 19.459 60.6102 32.6612 56.973 37.0657C44.8751 51.7162 33.9043 67.1472 22.3442 82.2058C18.6127 87.0665 21.4616 82.4941 23.0975 79.7303C28.0411 71.378 34.5689 60.8674 39.6209 53.0302C45.0714 44.5749 52.1032 33.7448 58.4797 25.5471C65.0563 17.0923 59.6366 26.1315 58.3291 28.2499C47.3239 46.0799 35.1008 63.2287 23.0975 80.387C21.7899 82.2562 17.8714 87.8638 19.1048 85.9443C21.8738 81.6348 27.2972 73.8443 29.4256 70.8387C41.5519 53.7145 53.7384 35.8705 67.8966 20.3435C68.2466 19.9596 69.3521 18.9691 69.1773 19.4594C68.5913 21.1031 67.4967 22.5166 66.5908 24.0062C62.2924 31.0741 57.2277 38.6255 52.7292 45.4016C38.8559 66.299 24.1865 86.8585 11.4206 108.476C5.62311 118.294 25.9106 90.8942 33.2175 82.1553C38.4637 75.8808 61.0908 48.8631 68.4742 41.9915C69.7067 40.8443 73.3814 38.5445 73.1951 40.2233C72.6659 44.9936 69.413 49.0458 67.2186 53.308C59.0273 69.2177 30.191 113.34 43.5634 101.505C60.5928 86.4332 74.2752 66.7874 89.8693 50.2263C90.6414 49.4063 113.023 23.6317 103.229 42.4462C90.9378 66.0569 76.4408 88.5459 62.2967 111.053C60.0153 114.683 51.7479 123.937 55.5668 122.016C59.2065 120.185 60.2504 115.32 62.6483 112.013C79.0818 89.3471 96.7074 65.8722 116.99 46.5131C117.543 45.9853 119.09 44.5724 118.948 45.3258C118.571 47.3312 117.157 48.9896 116.186 50.782C111.98 58.5516 104.689 71.1119 100.642 78.0378C91.0471 94.4581 81.4818 111.027 71.0607 126.942C55.3939 150.867 99.6664 77.3715 115.006 53.2323C115.009 53.2275 129.967 32.3531 118.22 42.8756C96.4903 62.3408 77.3007 85.0726 58.8815 107.643C49.5268 119.106 47.1084 122.567 39.0685 133.105C37.3255 135.39 36.3995 138.957 33.6695 139.824C31.5241 140.506 35.5814 135.724 36.6578 133.737C41.5442 124.715 45.1355 118.204 50.6198 108.982C62.8128 88.4777 76.1349 68.8787 90.0953 49.5696C91.5493 47.5585 95.9741 41.7586 93.9624 43.204C87.908 47.5542 83.2237 53.5705 78.0417 58.9411C73.9017 63.2318 58.8131 79.6855 52.8045 83.9487C43.2838 90.704 48.2329 79.1794 49.7158 75.3602C56.0827 58.9619 85.6599 14.9378 76.3843 29.8666C66.5339 45.7206 54.975 60.6008 44.6684 76.1686C39.561 83.883 37.7442 86.7452 33.3681 93.9518C31.9071 96.3578 29.8424 100.012 33.0668 94.3307C44.2156 74.6855 55.5853 55.1643 67.7459 36.1311C70.2275 32.247 74.1662 29.0159 75.2794 24.5367C75.4431 23.8778 74.2317 25.4056 73.7978 25.926C69.3038 31.3148 61.4495 41.8386 57.9775 46.6394C45.0463 64.5193 32.6579 82.825 21.9675 102.161C21.8094 102.447 18.1368 109.489 17.3469 110.699C16.7518 111.611 17.6375 108.503 18.1003 107.516C33.5121 74.6721 99.6635 -12.2822 77.6148 16.4786C62.4044 36.3194 47.9053 56.7268 33.4184 77.1032C25.4707 88.2818 17.6008 103.616 7.50319 113.326C0.143991 120.403 12.7506 93.4517 16.8447 84.075C26.1495 62.7642 37.7814 42.6668 50.5194 23.2736C56.0333 14.8788 45.1979 28.3034 44.7939 28.6036C40.7431 31.6131 40.9151 29.2075 41.3787 25.4208C41.6849 22.9197 44.4877 16.0617 42.9105 18.0195C34.7655 28.1304 29.6773 44.0469 24.4786 55.7583C17.9087 70.5587 12.0015 85.6371 5.5696 100.494C3.04362 106.329 4.17939 103.212 4.79114 102.212C7.56938 97.6705 9.82393 94.6914 13.1031 90.0112C25.4942 72.3257 37.0655 54.1671 48.4351 35.8027C53.9011 26.9739 57.6126 20.9973 62.6985 12.3107C64.2797 9.61003 70.1995 3.56043 67.1181 4.02535C63.6048 4.55546 62.6888 9.61899 60.6393 12.538C52.1547 24.6228 44.3157 37.1268 36.934 49.9232C27.3505 66.5362 17.4296 83.7097 10.5668 101.707C4.87851 116.624 20.9287 98.3273 22.319 96.8567C41.1856 76.9006 58.701 55.6873 77.5143 35.6764C81.4271 31.5145 84.4287 25.6926 89.7688 23.7031C94.1989 22.0526 85.8866 32.3996 83.3904 36.4342C69.6524 58.6397 54.7543 80.1018 41.1025 102.363C37.2606 108.628 33.0807 115.183 30.3547 122.066C26.8578 130.896 40.8011 106.225 45.9742 98.2713C62.026 73.5908 78.4877 49.4485 98.7085 27.9973C101.346 25.1992 106.878 16.3492 107.196 20.1919C107.328 21.7843 106.011 23.1664 105.238 24.5619C102.852 28.865 100.266 33.0533 97.7292 37.2678C81.2118 64.7041 63.9366 91.6724 47.506 119.161C36.1057 138.235 47.7874 124.895 54.3615 117.747C58.3221 113.44 73.5981 95.7275 78.5942 91.7289C88.0796 84.1372 85.7455 92.3791 84.194 99.4585C82.4675 107.337 78.6043 117.134 75.7314 124.896C75.3033 126.052 73.7662 129.225 74.727 128.457C82.469 122.273 88.8484 111.898 94.7158 104.283C109.057 85.6714 123.091 66.759 138.561 49.0643C152.591 33.0157 135.205 59.0823 133.865 61.3913C122.206 81.4848 111.532 102.036 100.969 122.723C98.3289 127.893 95.7386 133.356 92.5311 138.233C82.8176 153.003 103.885 104.584 111.817 88.7734C117.892 76.6639 125.898 64.8477 130.751 52.1461C132.448 47.7042 122.753 57.531 119.853 61.2903C105.327 80.1172 92.8796 100.584 80.7286 121.005C77.3497 126.684 67.7761 143.953 70.2069 137.804C83.7926 103.431 105.595 71.5558 125.528 40.6527C140.196 17.9112 90.0818 81.6967 75.1789 104.283C68.7694 113.997 62.6851 125.303 54.8637 134.065C51.6528 137.662 57.2201 124.654 59.0824 120.197C69.1368 96.1374 81.9467 71.3233 97.7543 50.5295" stroke="#F6C5DD" stroke-width="3"/>
<path d="M37 90.5017V103H49.4983L86.3598 66.1385L73.8616 53.6402L37 90.5017ZM96.0251 56.4731C97.325 55.1733 97.325 53.0736 96.0251 51.7738L88.2262 43.9749C86.9264 42.675 84.8267 42.675 83.5269 43.9749L77.4277 50.074L89.926 62.5723L96.0251 56.4731Z" fill="#EC4899"/>
</g>
<defs>
<filter id="filter0_d" x="0.5" y="0.500122" width="147" height="144" filterUnits="userSpaceOnUse" color-interpolation-filters="sRGB">
<feFlood flood-opacity="0" result="BackgroundImageFix"/>
<feColorMatrix in="SourceAlpha" type="matrix" values="0 0 0 0 0 0 0 0 0 0 0 0 0 0 0 0 0 0 127 0" result="hardAlpha"/>
<feOffset/>
<feGaussianBlur stdDeviation="1"/>
<feComposite in2="hardAlpha" operator="out"/>
<feColorMatrix type="matrix" values="0 0 0 0 0 0 0 0 0 0 0 0 0 0 0 0 0 0 0.25 0"/>
<feBlend mode="normal" in2="BackgroundImageFix" result="effect1_dropShadow"/>
<feBlend mode="normal" in="SourceGraphic" in2="effect1_dropShadow" result="shape"/>
</filter>
</defs>
</svg>
