<svg width="165" height="157" viewBox="0 0 165 157" fill="none" xmlns="http://www.w3.org/2000/svg">
<g filter="url(#filter0_d)">
<path d="M108.408 92.3382C96.4893 106.354 80.9876 115.678 67.9405 128.529C66.6431 129.806 52.2051 142.901 62.0513 137.955C91.4502 123.186 115.092 98.7321 144.5 83.8663C144.878 83.6751 149.917 81.1244 147.724 82.4022C137.886 88.1362 129.251 96.05 121.042 103.853C108.228 116.035 95.4552 127.968 81.1665 138.366C77.6849 140.9 74.397 144.021 70.5561 146.015C65.7148 148.529 70.6216 141.093 71.4115 139.6C82.2223 119.161 98.0294 102.065 109 81.7442C112.444 75.3648 115.929 68.9009 119.134 62.3987C119.835 60.9764 122.264 59.1049 121.075 58.0558C120.452 57.5061 113.172 63.092 112.948 63.2541C101.055 71.8875 90.5167 82.4634 79.6202 92.2888C71.1364 99.9386 62.6205 107.612 54.4842 115.632C52.8772 117.216 51.2268 118.757 49.6314 120.353C46.2727 123.712 56.4533 113.74 59.7647 110.335C75.1895 94.4728 89.8935 77.9451 104.773 61.5762C113.886 51.5505 124.277 41.8703 132.672 31.1926C142.568 18.6072 106.97 50.4597 95.6098 61.7407C81.1954 76.0547 67.9091 92.6437 51.9673 105.317C50.9442 106.131 47.559 109.19 45.9301 109.413C44.7783 109.571 46.8743 107.272 47.5422 106.321C50.5329 102.061 55.2883 95.9324 58.3665 92.2065C77.0299 69.6161 99.3388 50.8638 119.101 29.3666C119.919 28.4768 120.737 27.5843 121.486 26.6359C122.679 25.1261 122.373 25.134 120.729 26.0436C111.055 31.3969 102.285 39.0477 93.6358 45.8333C75.8975 59.7492 59.3062 74.8577 41.9491 89.1797C40.354 90.4959 37.8158 94.1576 36.6686 92.4368C34.9157 89.8076 48.6891 73.7919 49.2037 73.1242C59.1158 60.2634 69.7615 48.0066 80.1301 35.519C83.8484 31.0409 92.1408 23.6068 93.4877 17.4895C94.0576 14.9016 87.9907 16.7391 85.5423 17.7527C69.7387 24.2955 55.6177 35.1211 41.8175 44.9943C29.9327 53.4973 -6.05863 78.3643 6.69625 71.2325C19.7087 63.9566 31.2286 54.209 42.5742 44.6324C48.359 39.7497 54.8236 34.8764 59.6167 28.9389C63.9509 23.5699 65.7452 17.1235 68.434 10.9094" stroke="#D2F3BF" stroke-width="3"/>
<path d="M98.341 7.65229C79.1469 14.9618 58.1005 18.9002 39.7617 28.2151C37.1631 29.535 36.7501 29.8176 40.1895 28.4454C49.3051 24.8086 58.4895 21.4403 67.7765 18.2627C80.8083 13.8038 93.7286 9.00863 106.829 4.75704C110.902 3.43535 109.953 3.82599 105.382 6.07306C92.1545 12.5746 78.8756 18.9721 65.8354 25.8463C54.5011 31.8211 43.3763 38.2863 33.3462 46.3104C30.3817 48.6819 21.6457 54.9212 25.4171 54.4861C28.4208 54.1396 32.3639 51.4367 34.8267 50.1762C45.3098 44.8105 55.7676 39.3968 66.2631 34.0549C79.4007 27.3683 92.3534 20.6372 106.073 15.2194C106.359 15.1064 112.953 12.1886 113.377 12.9822C114.412 14.9235 73.2667 33.8283 69.7834 35.5848C56.6604 42.2021 43.4866 49.5319 31.076 57.4143C26.3706 60.4028 29.5147 58.3131 32.902 56.1641C55.1596 42.0426 79.2448 30.2758 103.046 19.0359C110.428 15.5494 117.859 11.9162 125.55 9.1328C127.696 8.35601 133.978 5.97288 132.163 7.35617C124.705 13.0385 114.865 16.7138 106.632 21.0757C98.0323 25.6319 89.3052 30.1117 81.0354 35.2558C65.8944 44.6739 51.8037 55.7951 37.6725 66.6429C36.0026 67.9248 28.7691 73.5043 35.7808 69.5545C58.5836 56.7093 80.9139 42.978 103.967 30.5839C109.424 27.65 114.81 24.1079 120.713 22.1285C124.855 20.7399 119.323 24.2399 118.476 24.8592C107.952 32.5567 97.1081 39.7809 86.2337 46.9684C71.3297 56.8192 57.0703 67.3787 43.1011 78.5035C41.6494 79.6596 30.2241 87.954 38.3964 82.3035C54.5984 71.101 70.5113 59.4443 87.1384 48.8766C92.5127 45.4609 97.8023 41.9348 103.128 38.4471C103.455 38.2332 104.405 37.5611 104.049 37.7233C100.009 39.5686 94.5171 42.3225 91.0865 44.0731C74.2636 52.6576 57.6024 61.6243 41.5219 71.545C31.9734 77.4358 22.5607 83.6721 14.708 91.7459C10.5477 96.0234 19.3286 90.5267 19.7089 90.3312C35.4863 82.2212 50.8076 73.3394 66.1644 64.4714C81.3139 55.7231 96.6359 47.7235 112.587 40.5857C114.203 39.8624 117.448 38.2042 113.113 41.145C103.544 47.6379 93.3944 53.2119 83.5358 59.2402C71.4565 66.6266 58.9763 74.5244 49.3851 85.1165C47.7323 86.9418 45.6505 89.3426 49.7964 89.1632C60.9838 88.6792 72.4604 84.2188 82.9601 80.7736C93.3537 77.3632 103.879 73.9526 114.035 69.8671C116.655 68.8131 119.757 67.647 121.733 65.4913C124.631 62.3303 113.493 67.9226 109.527 69.5545C96.996 74.7115 85.3172 80.916 73.9124 88.2256C63.4603 94.9247 53.0413 101.912 43.792 110.236C33.0733 119.883 66.7475 92.7414 78.7653 84.771C97.5647 72.303 116.843 60.4711 136.21 48.9095C142.469 45.1729 152.593 39.1078 159.931 35.4696C163.064 33.9164 153.942 39.086 150.867 40.7502C121.968 56.389 93.4042 72.6397 64.3877 88.0611C57.9693 91.4723 51.5811 94.9529 45.1081 98.2602C42.071 99.812 33.7836 104.727 35.5011 101.781C36.5109 100.048 42.4407 94.084 42.6405 93.8845C47.4697 89.0614 55.5865 81.3815 60.5713 77.0723C73.7008 65.7222 87.9719 56.2093 102.947 47.4948C108.003 44.5524 113.154 41.7991 118.377 39.1709C118.916 38.8998 120.376 37.885 119.99 38.3484C118.552 40.0739 116.445 41.1099 114.627 42.4281C85.2709 63.7074 54.0741 82.276 25.7297 104.972C24.113 106.266 19.2376 108.732 21.2388 109.265C24.9865 110.265 37.0743 102.349 39.3834 101.155C62.2782 89.319 84.0182 75.4794 106.138 62.3C112.154 58.7157 118.297 55.4205 124.694 52.5614C127.402 51.3513 138.491 45.0034 141.934 46.2117C143.586 46.7912 139.155 48.346 137.69 49.3043C131.27 53.5042 128.539 55.1415 121.898 59.635C110.824 67.128 100.238 75.2143 89.9514 83.7511C81.1414 91.0626 72.0651 98.5639 64.8155 107.505C63.1576 109.55 64.1524 109.486 66.6743 108.575C77.3642 104.713 87.7148 99.624 97.8969 94.6083C105.716 90.7566 113.26 86.5477 120.565 81.7935C125.578 78.5315 133.641 74.7739 137.394 69.9494C138.348 68.7227 134.398 70.8296 133.002 71.5121C127.695 74.1064 123.126 76.6079 117.983 79.655C107.198 86.0444 97.1545 93.3401 87.3852 101.172C79.9088 107.166 72.671 113.611 64.8154 119.119C52.8436 127.513 89.6877 103.729 102.388 96.4836C118.856 87.089 135.499 78.4312 152.429 69.9658C160.143 66.1087 137.152 77.9957 129.777 82.468C117.563 89.8756 106.049 97.9726 94.8207 106.781C81.9605 116.871 68.7318 126.405 56.1626 136.852C53.6661 138.928 51.0725 140.87 48.3981 142.709C42.2944 146.905 60.352 133.953 66.4934 129.812C86.2621 116.482 107.188 105.389 127.261 92.6671C129.568 91.2045 132.523 88.6563 135.223 87.9295C137.217 87.3924 131.733 90.142 129.991 91.2524C122.514 96.0188 115.299 100.679 107.948 105.696C91.3043 117.054 72.3879 128.912 58.6302 143.959C58.4408 144.166 56.2233 146.408 57.6925 146.015C64.411 144.219 71.0816 140.846 77.367 137.971C100.242 127.508 121.568 114.095 143.99 102.751C146.136 101.666 152.677 98.7352 150.357 99.3624C145.385 100.706 140.549 103.859 136.275 106.551C120.15 116.711 104.863 128.691 90.5765 141.294C89.4696 142.271 79.4605 150.851 79.9168 152.447C80.0199 152.808 80.5143 151.993 80.8051 151.756C86.5903 147.041 89.7585 144.519 96.4657 139.188C114.841 124.585 133.362 110.165 151.739 95.5624C152.874 94.66 155.785 90.692 155.785 93.5226" stroke="#D2F3BF" stroke-width="3"/>
<rect x="50" y="62" width="31" height="47" rx="2" fill="#76E235"/>
<rect x="87" y="45" width="31" height="47" rx="2" fill="#76E235"/>
</g>
<defs>
<filter id="filter0_d" x="0.499023" y="0.499634" width="163.578" height="155.539" filterUnits="userSpaceOnUse" color-interpolation-filters="sRGB">
<feFlood flood-opacity="0" result="BackgroundImageFix"/>
<feColorMatrix in="SourceAlpha" type="matrix" values="0 0 0 0 0 0 0 0 0 0 0 0 0 0 0 0 0 0 127 0" result="hardAlpha"/>
<feOffset/>
<feGaussianBlur stdDeviation="1"/>
<feComposite in2="hardAlpha" operator="out"/>
<feColorMatrix type="matrix" values="0 0 0 0 0 0 0 0 0 0 0 0 0 0 0 0 0 0 0.25 0"/>
<feBlend mode="normal" in2="BackgroundImageFix" result="effect1_dropShadow"/>
<feBlend mode="normal" in="SourceGraphic" in2="effect1_dropShadow" result="shape"/>
</filter>
</defs>
</svg>
