<svg width="152" height="150" viewBox="0 0 152 150" fill="none" xmlns="http://www.w3.org/2000/svg">
<g filter="url(#filter0_d)">
<path d="M99.8107 9.2209C69.1089 21.2068 37.5769 32.4475 6.12451 41.4655C6.11024 41.4696 3.09689 42.23 3.89546 41.8947C15.8555 36.8727 28.3928 33.1568 40.5905 29.0045C56.9675 23.4294 73.3006 17.9734 90.0988 14.3594C101.647 11.8749 114.078 8.78901 125.853 8.67357C128.378 8.64882 128.027 9.56193 125.98 11.1754C116.837 18.3816 105.34 22.5975 94.9178 26.7316C68.1813 37.3374 40.1791 43.8671 13.7323 55.3854C13.5906 55.4471 5.16393 59.1988 9.17062 57.4903C21.329 52.3056 33.7248 47.7282 46.1351 43.3962C60.8777 38.2501 75.7789 33.9172 90.8304 30.174C95.3518 29.0496 108.295 24.653 104.524 27.6621C97.9313 32.9232 89.4558 36.4492 82.1191 40.0844C71.0007 45.5934 59.7383 50.7402 48.7301 56.5268C43.9229 59.0538 39.2793 61.8424 34.6992 64.8359C33.7697 65.4434 32.5253 66.13 34.544 65.2396C43.2749 61.3888 51.8953 57.2176 60.6167 53.3373C79.1057 45.1111 134.92 22.8644 117.707 34.0085C103.788 43.0199 88.3099 49.3231 73.5626 56.3624C57.1463 64.1984 41.0637 73.0599 24.5206 80.5418C23.1245 81.1732 19.1684 82.8246 20.1013 81.5259C25.3969 74.1541 34.1429 67.9919 41.1138 62.8802C55.4138 52.3941 70.7566 43.2898 86.3239 35.3412C95.3106 30.7525 105.644 25.1628 115.424 22.926C117.056 22.5529 112.398 24.5026 110.874 25.2653C104.538 28.4363 99.8359 30.7752 93.3148 33.9004C78.8842 40.8165 64.3854 47.4918 50.1045 54.7973C42.9293 58.4678 35.8313 62.3385 28.6254 65.9341C23.9783 68.2529 37.6357 60.6414 42.2184 58.1682C56.2757 50.5815 70.4907 43.3373 84.9759 36.8267C92.1094 33.6205 97.393 31.3454 104.536 28.8033C107.095 27.8923 113.152 23.8875 112.356 26.6694C112.098 27.5722 110.841 27.6474 110.035 28.0202C106.434 29.6857 102.784 31.2131 99.1472 32.7787C89.0586 37.1223 67.6849 46.3656 57.6166 49.9025C44.536 54.4976 44.7262 53.2947 55.7769 46.072C63.9122 40.7548 73.2003 37.5234 80.7766 31.289C83.4368 29.1 74.2573 32.6026 70.9738 32.7387C64.8015 32.9947 70.8262 30.8934 70.0938 29.4448C69.7971 28.8578 42.0959 39.3816 59.1392 31.466C61.5435 30.3493 71.1109 25.5478 75.435 26.6339C82.6103 28.4361 65.1749 30.5804 78.7575 29.2836C84.1317 28.7705 93.8447 23.1721 94.8991 28.8296C95.5102 32.1084 91.9213 34.9919 89.6964 37.4443C85.2829 42.3092 79.7839 45.8824 75.193 50.551C72.7158 53.0702 65.8688 56.9181 68.5648 58.9337C72.4118 61.8099 78.0799 57.5656 82.7109 56.1717C91.3986 53.5569 99.8448 49.9788 108.426 46.9361C114.249 44.8717 119.95 42.2195 125.923 40.8507C126.553 40.7064 126.483 42.5233 125.947 42.9209C120.419 47.0194 89.5927 64.2657 86.8716 65.7701C75.6323 71.9836 64.7803 79.6257 52.7212 83.4054C45.4664 85.6792 65.6828 74.753 72.4594 71.0486C85.2026 64.0826 96.8855 58.2799 109.907 52.256C111.709 51.422 117.114 48.9553 115.394 49.9844C112.405 51.7731 109.199 53.0743 106.075 54.5488C84.2938 64.8285 62.4414 75.6973 40.1052 84.3814C38.8853 84.8557 35.2254 85.9503 36.3039 85.1581C39.6832 82.676 43.5012 81.0002 47.2032 79.1679C63.9069 70.9003 78.4158 64.7702 95.8719 57.9982C103.992 54.8479 112.102 51.601 120.391 49.0912C123.403 48.1791 130.459 44.5056 129.649 47.7711C128.5 52.4023 122.519 53.6694 118.654 56.0905C109.149 62.0451 99.3383 67.3843 89.6005 72.8583C78.123 79.3103 50.1702 94.8179 36.109 101.351C23.6742 107.129 31.0013 101.588 36.989 97.5268C49.1548 89.276 62.789 81.6405 75.5641 74.8383C81.2682 71.8011 87.0015 68.8151 92.8532 66.1529C94.2261 65.5283 98.2233 63.8545 97.1718 65.0079C94.8303 67.5764 91.5809 68.9275 88.6942 70.715C73.7973 79.94 27.9917 105.272 43.4285 97.2174C56.3131 90.4945 56.7443 89.8242 71.5958 82.5556C73.464 81.6412 93.8944 71.6827 98.8452 70.8212C103.954 69.9321 90.9961 78.4476 86.5232 81.3837C75.516 88.6091 57.5481 99.3952 46.3155 106.333C37.4932 111.783 33.1071 114.348 44.1806 108.484C62.1406 98.9749 80.1014 87.4119 99.0065 80.3735C115.429 74.2593 69.0753 99.8369 53.8336 109.022C36.741 119.322 50.8015 110.898 51.9372 110.231C65.3127 102.372 71.0515 98.9951 85.4161 91.1303C101.057 82.5667 98.9285 83.8858 110.973 77.7061C116.191 75.029 100.485 82.9298 95.2741 85.6242C81.1238 92.9413 76.2261 95.5657 62.7736 103.163C60.5733 104.406 58.4124 105.733 56.2202 106.993C49.9143 110.618 68.7347 99.5372 75.0368 95.904C84.5655 90.4107 100.471 81.3851 110.421 76.4645C113.478 74.9527 116.477 72.7285 119.79 72.4722C121.213 72.3621 118.05 75.0491 116.874 75.9653C111.053 80.5004 79.8459 101.723 76.4688 104.067C66.2093 111.188 55.1895 117.28 46.0326 126.015C41.3274 130.504 57.5361 120.757 63.1407 117.765C73.8871 112.03 95.6543 100.219 106.699 94.7974C110.298 93.0304 113.792 90.4328 117.683 90.0059C119.294 89.8291 115.681 92.8869 114.368 93.9559C95.8882 109.008 75.8467 122.034 56.6714 135.989C45.8084 143.895 49.0941 141.547 56.5183 136.663C70.8309 127.249 74.6364 124.606 89.896 115.241C98.6753 109.853 108.002 105.458 116.305 99.2195C116.858 98.8042 117.859 97.1445 117.204 97.2713C113.581 97.9724 110.125 99.6056 106.68 101.082C90.3732 108.069 43.6363 133.371 60.6193 128.98C67.8949 127.099 96.6909 113.965 99.7674 112.613C106.891 109.481 134.82 104.099 141.977 101.065" stroke="#F9DFB2" stroke-width="3" shape-rendering="crispEdges"/>
</g>
<path fill-rule="evenodd" clip-rule="evenodd" d="M65.9384 37.5771C65.9384 36.6777 66.0689 35.8116 66.3105 35C51.0851 39.6342 40 53.8619 40 70.6948C40 91.2876 56.59 107.981 77.0548 107.981C96.5534 107.981 112.534 92.8267 114 73.5843C113.178 73.9608 112.276 74.1687 111.331 74.1687C107.725 74.1687 104.762 71.1485 104.416 67.2828C102.675 69.5132 100.089 70.9264 97.2034 70.9264C91.9593 70.9264 87.7081 66.2605 87.7081 60.5048C87.7081 60.0698 87.7323 59.6411 87.7795 59.2201C86.3414 60.1821 84.652 60.7364 82.8446 60.7364C77.6005 60.7364 73.3493 56.0704 73.3493 50.3147C73.3493 48.73 73.6716 47.2279 74.2481 45.8831C74.0282 45.9039 73.8057 45.9144 73.5809 45.9144C69.3601 45.9144 65.9384 42.1817 65.9384 37.5771ZM57.3694 66.3493C59.9741 66.3493 62.0856 64.2378 62.0856 61.6331C62.0856 59.0285 59.9741 56.917 57.3694 56.917C54.7648 56.917 52.6533 59.0285 52.6533 61.6331C52.6533 64.2378 54.7648 66.3493 57.3694 66.3493ZM57.3694 68.3493C61.0787 68.3493 64.0856 65.3424 64.0856 61.6331C64.0856 57.9239 61.0787 54.917 57.3694 54.917C53.6602 54.917 50.6533 57.9239 50.6533 61.6331C50.6533 65.3424 53.6602 68.3493 57.3694 68.3493ZM64.3172 83.024C66.9219 83.024 69.0334 80.9125 69.0334 78.3078C69.0334 75.7031 66.9219 73.5916 64.3172 73.5916C61.7125 73.5916 59.601 75.7031 59.601 78.3078C59.601 80.9125 61.7125 83.024 64.3172 83.024ZM64.3172 85.024C68.0265 85.024 71.0334 82.017 71.0334 78.3078C71.0334 74.5986 68.0265 71.5916 64.3172 71.5916C60.608 71.5916 57.601 74.5986 57.601 78.3078C57.601 82.017 60.608 85.024 64.3172 85.024ZM85.2449 75.0655C85.2449 77.6702 83.1334 79.7817 80.5287 79.7817C77.924 79.7817 75.8125 77.6702 75.8125 75.0655C75.8125 72.4608 77.924 70.3493 80.5287 70.3493C83.1334 70.3493 85.2449 72.4608 85.2449 75.0655ZM87.2449 75.0655C87.2449 78.7748 84.2379 81.7817 80.5287 81.7817C76.8195 81.7817 73.8125 78.7748 73.8125 75.0655C73.8125 71.3563 76.8195 68.3493 80.5287 68.3493C84.2379 68.3493 87.2449 71.3563 87.2449 75.0655ZM87.4765 96.4564C90.0811 96.4564 92.1926 94.3448 92.1926 91.7402C92.1926 89.1355 90.0811 87.024 87.4765 87.024C84.8718 87.024 82.7603 89.1355 82.7603 91.7402C82.7603 94.3448 84.8718 96.4564 87.4765 96.4564ZM87.4765 98.4564C91.1857 98.4564 94.1926 95.4494 94.1926 91.7402C94.1926 88.0309 91.1857 85.024 87.4765 85.024C83.7672 85.024 80.7603 88.0309 80.7603 91.7402C80.7603 95.4494 83.7672 98.4564 87.4765 98.4564Z" fill="#F59E0B"/>
<defs>
<filter id="filter0_d" x="0.262695" y="5.17163" width="144.303" height="139.472" filterUnits="userSpaceOnUse" color-interpolation-filters="sRGB">
<feFlood flood-opacity="0" result="BackgroundImageFix"/>
<feColorMatrix in="SourceAlpha" type="matrix" values="0 0 0 0 0 0 0 0 0 0 0 0 0 0 0 0 0 0 127 0" result="hardAlpha"/>
<feOffset/>
<feGaussianBlur stdDeviation="1"/>
<feComposite in2="hardAlpha" operator="out"/>
<feColorMatrix type="matrix" values="0 0 0 0 0 0 0 0 0 0 0 0 0 0 0 0 0 0 0.25 0"/>
<feBlend mode="normal" in2="BackgroundImageFix" result="effect1_dropShadow"/>
<feBlend mode="normal" in="SourceGraphic" in2="effect1_dropShadow" result="shape"/>
</filter>
</defs>
</svg>
