<svg width="144" height="141" viewBox="0 0 144 141" fill="none" xmlns="http://www.w3.org/2000/svg">
<path d="M86.2621 48.5295C71.3157 68.0191 55.1173 89.1287 35.0847 103.748C34.4719 104.195 32.4192 105.022 32.9251 104.456C38.1733 98.5764 45.1683 93.8358 51.4072 89.1479C61.3655 81.6651 71.6547 73.7805 82.646 67.8788C97.9693 59.6511 90.1283 72.7094 85.8603 80.1047C75.4797 98.0916 96.664 78.7049 100.475 75.962C118.315 63.1235 96.1791 87.4163 95.0512 88.7942C87.8857 97.5482 65.9407 123.434 73.2041 114.762C84.9273 100.765 97.5842 87.6039 110.219 74.4464C111.469 73.1445 115.156 69.182 113.985 70.5564C112.714 72.0484 111.268 73.3807 109.917 74.8001C101.016 84.1515 96.0771 89.3706 87.0657 98.9994C81.634 104.803 76.5703 110.97 70.8436 116.479C66.8888 120.284 70.3632 113.398 70.6427 112.741C78.3827 94.5362 87.5318 76.8734 96.4574 59.2398C105.102 42.1618 92.09 59.9218 88.9239 63.9382C77.284 78.7043 63.8559 94.4305 55.3748 111.377C48.5071 125.1 76.4174 89.0837 86.3375 77.4019C91.9913 70.744 109.821 51.7524 102.961 57.1432C92.4426 65.4095 83.6039 78.7586 75.1125 88.8953C67.29 98.2335 60.0248 108.773 51.5076 117.515C44.2521 124.962 61.1618 99.0467 66.4993 90.1078C73.5393 78.3176 78.2149 70.8051 85.7599 59.6439C87.792 56.6378 89.9937 53.7503 92.0378 50.7523C92.5899 49.9425 94.5118 48.0948 93.5445 48.2263C92.1064 48.4218 91.2478 50.0169 90.1795 51.0049C87.2946 53.6733 84.492 56.431 81.6918 59.1892C72.8743 67.8746 68.3936 72.4734 59.8949 81.5698C58.8249 82.7151 45.5309 97.2899 43.3213 99.6056C41.4789 101.536 36.8186 107.2 37.0182 104.531C37.4422 98.8651 41.6735 94.1532 44.5266 89.2489C52.9679 74.7394 62.3754 60.8133 72.4005 47.3675C73.8766 45.3877 80.0178 37.3384 82.7967 34.7374C83.7687 33.8276 82.0351 37.3558 81.2398 38.4254C69.2587 54.5384 55.3869 69.4031 41.8648 84.1969C38.6987 87.6607 35.6076 91.2057 32.2219 94.4525C31.7958 94.8612 32.3811 93.2487 32.6739 92.7348C39.6815 80.4409 47.3662 68.4633 55.5255 56.9158C61.9388 47.8394 68.7766 39.068 76.0166 30.6452C76.2473 30.3767 66.5687 43.3828 66.2231 43.831C55.6307 57.5675 44.9898 71.4703 33.4775 84.4495C25.1836 93.8002 36.1908 68.9956 36.6416 67.9293C40.5733 58.6282 44.7065 49.1601 49.6996 40.3704C53.0445 34.4821 48.3934 43.1196 48.218 43.3764C41.4271 53.3216 34.1671 63.0784 26.7727 72.5772C24.6781 75.2679 22.7579 78.0343 25.0651 72.5772C27.8281 66.0421 34.7775 52.2039 37.3447 47.0391C38.8212 44.0687 58.3972 10.6311 40.5841 32.4892C33.148 41.6139 25.9238 54.5087 16.6025 61.8416C12.5619 65.0202 18.4845 51.5805 20.6706 46.9128C26.4702 34.5299 33.2443 22.5471 38.5501 9.9318C38.7561 9.44181 29.3619 23.8206 29.3592 23.8249C21.4281 36.441 12.3246 49.0938 5.9552 62.6246C3.67573 67.467 16.3353 59.4727 20.6706 56.3601C30.8829 49.0281 33.9885 46.081 44.2253 38.2738C44.3002 38.2167 58.591 26.9519 61.8034 26.5025C65.6473 25.9648 60.2278 34.2864 58.2878 37.6675C56.4293 40.9067 44.4405 59.8396 42.5679 62.8267C38.5555 69.2273 35.6502 73.8163 31.9708 80.1047C31.6042 80.7313 30.5075 82.6062 30.9412 82.0245C31.6243 81.1083 32.1441 80.0797 32.7242 79.0943C41.429 64.3058 49.8614 49.3625 58.8402 34.7373C61.3709 30.6153 64.2303 26.6929 66.5746 22.4609C69.3453 17.459 58.6102 30.6612 54.973 35.0657C42.8751 49.7162 31.9043 65.1472 20.3442 80.2058C16.6127 85.0665 19.4616 80.4941 21.0975 77.7303C26.0411 69.378 32.5689 58.8674 37.6209 51.0302C43.0714 42.5749 50.1032 31.7448 56.4797 23.5471C63.0563 15.0923 57.6366 24.1315 56.3291 26.2499C45.3239 44.0799 33.1008 61.2287 21.0975 78.387C19.7899 80.2562 15.8714 85.8638 17.1048 83.9443C19.8738 79.6348 25.2972 71.8443 27.4256 68.8387C39.5519 51.7145 51.7384 33.8705 65.8966 18.3435C66.2466 17.9596 67.3521 16.9691 67.1773 17.4594C66.5913 19.1031 65.4967 20.5166 64.5908 22.0062C60.2924 29.0741 55.2277 36.6255 50.7292 43.4016C36.8559 64.299 22.1865 84.8585 9.4206 106.476C3.62311 116.294 23.9106 88.8942 31.2175 80.1553C36.4637 73.8808 59.0908 46.8631 66.4742 39.9915C67.7067 38.8443 71.3814 36.5445 71.1951 38.2233C70.6659 42.9936 67.413 47.0458 65.2186 51.308C57.0273 67.2177 28.191 111.34 41.5634 99.5046C58.5928 84.4332 72.2752 64.7874 87.8693 48.2263C88.6414 47.4063 111.023 21.6317 101.229 40.4462C88.9378 64.0569 74.4408 86.5459 60.2967 109.053C58.0153 112.683 49.7479 121.937 53.5668 120.016C57.2065 118.185 58.2504 113.32 60.6483 110.013C77.0818 87.3471 94.7074 63.8722 114.99 44.5131C115.543 43.9853 117.09 42.5724 116.948 43.3258C116.571 45.3312 115.157 46.9896 114.186 48.782C109.98 56.5516 102.689 69.1119 98.6421 76.0378C89.0471 92.4581 79.4818 109.027 69.0607 124.942C53.3939 148.867 97.6664 75.3715 113.006 51.2323C113.009 51.2275 127.967 30.3531 116.22 40.8756C94.4903 60.3408 75.3007 83.0726 56.8815 105.643C47.5268 117.106 45.1084 120.567 37.0685 131.105C35.3255 133.39 34.3995 136.957 31.6695 137.824C29.5241 138.506 33.5814 133.724 34.6578 131.737C39.5442 122.715 43.1355 116.204 48.6198 106.982C60.8128 86.4777 74.1349 66.8787 88.0953 47.5696C89.5493 45.5585 93.9741 39.7586 91.9624 41.204C85.908 45.5542 81.2237 51.5705 76.0417 56.9411C71.9017 61.2318 56.8131 77.6855 50.8045 81.9487C41.2838 88.704 46.2329 77.1794 47.7158 73.3602C54.0827 56.9619 83.6599 12.9378 74.3843 27.8666C64.5339 43.7206 52.975 58.6008 42.6684 74.1686C37.561 81.883 35.7442 84.7452 31.3681 91.9518C29.9071 94.3578 27.8424 98.0123 31.0668 92.3307C42.2156 72.6855 53.5853 53.1643 65.7459 34.1311C68.2275 30.247 72.1662 27.0159 73.2794 22.5367C73.4431 21.8778 72.2317 23.4056 71.7978 23.926C67.3038 29.3148 59.4495 39.8386 55.9775 44.6394C43.0463 62.5193 30.6579 80.825 19.9675 100.161C19.8094 100.447 16.1368 107.489 15.3469 108.699C14.7518 109.611 15.6375 106.503 16.1003 105.516C31.5121 72.6721 97.6635 -14.2822 75.6148 14.4786C60.4044 34.3194 45.9053 54.7268 31.4184 75.1032C23.4707 86.2818 15.6008 101.616 5.50319 111.326C-1.85601 118.403 10.7506 91.4517 14.8447 82.075C24.1495 60.7642 35.7814 40.6668 48.5194 21.2736C54.0333 12.8788 43.1979 26.3034 42.7939 26.6036C38.7431 29.6131 38.9151 27.2075 39.3787 23.4208C39.6849 20.9197 42.4877 14.0617 40.9105 16.0195C32.7655 26.1304 27.6773 42.0469 22.4786 53.7583C15.9087 68.5587 10.0015 83.6371 3.5696 98.4942C1.04362 104.329 2.17939 101.212 2.79114 100.212C5.56938 95.6705 7.82393 92.6914 11.1031 88.0112C23.4942 70.3257 35.0655 52.1671 46.4351 33.8027C51.9011 24.9739 55.6126 18.9973 60.6985 10.3107C62.2797 7.61003 68.1995 1.56043 65.1181 2.02535C61.6048 2.55546 60.6888 7.61899 58.6393 10.538C50.1547 22.6228 42.3157 35.1268 34.934 47.9232C25.3505 64.5362 15.4296 81.7097 8.5668 99.7066C2.87851 114.624 18.9287 96.3273 20.319 94.8567C39.1856 74.9006 56.701 53.6873 75.5143 33.6764C79.4271 29.5145 82.4287 23.6926 87.7688 21.7031C92.1989 20.0526 83.8866 30.3996 81.3904 34.4342C67.6524 56.6397 52.7543 78.1018 39.1025 100.363C35.2606 106.628 31.0807 113.183 28.3547 120.066C24.8578 128.896 38.8011 104.225 43.9742 96.2713C60.026 71.5908 76.4877 47.4485 96.7085 25.9973C99.3462 23.1992 104.878 14.3492 105.196 18.1919C105.328 19.7843 104.011 21.1664 103.238 22.5619C100.852 26.865 98.2664 31.0533 95.7292 35.2678C79.2118 62.7041 61.9366 89.6724 45.506 117.161C34.1057 136.235 45.7874 122.895 52.3615 115.747C56.3221 111.44 71.5981 93.7275 76.5942 89.7289C86.0796 82.1372 83.7455 90.3791 82.194 97.4585C80.4675 105.337 76.6043 115.134 73.7314 122.896C73.3033 124.052 71.7662 127.225 72.727 126.457C80.469 120.273 86.8484 109.898 92.7158 102.283C107.057 83.6714 121.091 64.759 136.561 47.0643C150.591 31.0157 133.205 57.0823 131.865 59.3913C120.206 79.4848 109.532 100.036 98.9686 120.723C96.3289 125.893 93.7386 131.356 90.5311 136.233C80.8176 151.003 101.885 102.584 109.817 86.7734C115.892 74.6639 123.898 62.8477 128.751 50.1461C130.448 45.7042 120.753 55.531 117.853 59.2903C103.327 78.1172 90.8796 98.5844 78.7286 119.005C75.3497 124.684 65.7761 141.953 68.2069 135.804C81.7926 101.431 103.595 69.5558 123.528 38.6527C138.196 15.9112 88.0818 79.6967 73.1789 102.283C66.7694 111.997 60.6851 123.303 52.8637 132.065C49.6528 135.662 55.2201 122.654 57.0824 118.197C67.1368 94.1374 79.9467 69.3233 95.7543 48.5295" stroke="#F6C5DD" stroke-width="3"/>
<path d="M68.7 38V104C51.969 102.35 39 88.193 39 71C39 53.807 51.969 39.65 68.7 38ZM75.399 38V67.667H105C103.449 52.025 91.008 39.551 75.399 38ZM75.399 74.333V104C91.041 102.449 103.449 89.975 105 74.333H75.399Z" fill="#EC4899"/>
</svg>
