<svg width="167" height="169" viewBox="0 0 167 169" fill="none" xmlns="http://www.w3.org/2000/svg">
<path d="M71.7884 46.3985C64.5654 43.3802 59.9827 41.9155 53.1305 46.1954C47.3662 49.7959 42.1606 54.0243 36.9955 58.4198C28.9775 65.243 20.2731 71.6733 12.9865 79.2946C9.62454 82.8108 6.93963 86.8519 3.28105 90.0975C3.24383 90.1305 1.00986 92.3607 2.52824 91.2346C7.90353 87.2483 13.7027 81.574 18.3987 77.5482C22.9827 73.6184 27.3367 69.371 32.3158 65.9534C43.4912 58.2827 35.8983 68.8258 34.9609 73.1012C31.8135 87.4554 41.0179 77.0721 50.0378 69.2227C67.5368 53.9943 114.97 3.30415 96.7335 17.6449C92.132 21.2634 88.5148 25.9904 84.6882 30.4175C73.1576 43.7577 59.2105 61.8339 48.6339 75.8628C38.5827 89.1948 28.9138 102.804 19.6602 116.699C17.723 119.607 23.8528 111.105 25.927 108.292C45.7197 81.4462 66.1866 55.1689 86.8857 29.0163C90.5073 24.4406 94.2383 19.949 97.7508 15.2893C99.0608 13.5516 94.8671 18.552 93.4984 20.2441C75.4899 42.5069 58.1795 65.404 42.3671 89.2852C38.7336 94.7728 35.0669 100.271 32.0513 106.119C31.204 107.762 29.2157 112.327 30.8915 111.541C35.4941 109.382 38.6423 104.95 42.2246 101.347C55.4838 88.0135 75.1165 65.7705 87.1909 52.2873C93.5962 45.1345 99.8736 37.8666 106.378 30.8033C115.291 21.1242 114.826 22.3936 107.761 32.4278C89.6893 58.0959 70.7645 83.2455 51.9504 108.373C47.6028 114.18 34.3113 131.411 38.6436 125.593C57.2636 100.588 76.7463 76.2275 96.1638 51.8405C102.542 43.8304 110.716 36.9118 115.127 27.6761C115.703 26.4698 112.989 29.2978 112.034 30.2347C103.324 38.7814 94.2217 49.2557 86.5195 58.1964C72.317 74.6822 57.8862 92.0842 44.4018 109.165C19.8594 140.253 34.2994 124.491 45.2156 110.932C63.5576 88.1486 80.4442 63.706 100.396 42.256C102.178 40.3404 104.741 35.2131 106.418 37.2201C108.319 39.4929 104.421 42.8136 103.061 45.4441C99.8289 51.6956 96.2094 57.741 92.6641 63.8212C78.6378 87.8766 75.5595 92.012 61.6151 116.13C58.005 122.374 54.3701 128.61 51.0551 135.015C49.9373 137.175 42.2992 150.637 51.3807 141.574C71.081 121.913 119.247 53.4151 103.407 76.2892C91.2223 93.8858 82.9785 105.382 70.8931 123.684C64.4379 133.46 45.6061 162.546 54.2496 154.631C70.8299 139.447 84.1983 118.641 98.4833 101.51C108.67 89.2926 137.687 52.4255 131.547 67.0905C117.993 99.4632 60.1481 187.61 81.5142 159.748C89.7606 148.994 96.9733 137.489 104.709 126.364C109.511 119.46 114.36 112.589 119.115 105.652C122.554 100.635 126.097 95.681 129.288 90.5036C130.271 88.9091 132.8 86.8316 131.608 85.3864C131.18 84.8677 76.7098 145.719 72.0733 150.448C60.4269 162.325 88.6453 121.614 97.3032 107.419C102.751 98.4872 108.451 89.6828 113.255 80.3911C120.52 66.3415 119.76 64.021 107.314 74.7054C98.789 82.0231 70.3797 111.031 62.6731 118.404C58.0763 122.803 53.7542 127.608 48.4711 131.157C47.5829 131.753 45.248 130.977 45.5005 129.938C46.7291 124.886 49.8244 120.475 52.1946 115.846C58.1382 104.237 67.205 88.4178 73.4365 77.0203C76.4959 71.4245 79.5765 65.8385 82.4908 60.1661C85.9658 53.4022 91.4574 46.889 91.6875 39.2913C91.8646 33.4439 82.6688 46.879 78.9912 51.4344C64.582 69.2829 51.9598 88.713 37.0769 106.16C24.7335 120.63 58.632 74.8139 70.0386 59.5975C76.0527 51.5747 82.1855 43.6409 88.3303 35.7174C93.6458 28.8632 108.133 7.53856 104.73 15.5127C100.283 25.9311 92.2092 34.4017 85.9701 43.8602C71.6038 65.6395 57.1075 87.4059 43.1809 109.47C37.7254 118.113 41.2341 113.765 46.1109 108.251C59.7346 92.8475 72.4729 73.75 89.0628 61.3235C99.8438 53.2482 94.4257 68.0612 93.4373 71.8625C88.511 90.8091 79.0604 108.309 74.0673 127.177C73.7016 128.558 72.8229 131.817 74.2097 131.461C76.8388 130.787 78.2271 127.786 79.9271 125.674C83.835 120.819 87.3491 115.66 90.9957 110.607C92.0515 109.144 117.14 69.5979 120.539 70.5629C122.954 71.2485 118.712 75.2364 117.609 77.4873C114.83 83.1606 111.799 88.7077 108.901 94.3212C105.194 101.501 101.446 108.66 97.7915 115.866C94.6497 122.062 91.405 128.211 88.5134 134.528C87.2291 137.333 84.6765 140.173 85.2783 143.198C85.6262 144.947 88.3954 141.356 89.6121 140.051C94.0193 135.322 97.9532 130.174 102.064 125.187C107.516 118.572 112.86 111.87 118.301 105.246C123.102 99.4015 127.841 93.5042 132.788 87.7826C135.44 84.715 137.707 81.1296 141.089 78.8884C146.504 75.3006 136.048 90.8799 132.829 96.5142C123.139 113.471 113.178 130.361 102.939 146.996C97.1768 156.358 96.7534 154.787 98.524 144.193C99.4716 138.524 100.624 132.889 101.779 127.258C103.112 120.765 109.327 95.7689 108.555 87.7216C107.219 73.7977 96.0027 84.2846 91.0567 87.9247C77.1992 98.1233 67.0325 111.967 53.9647 122.912C53.4258 123.364 51.9128 124.243 51.9504 123.542C52.0513 121.662 53.2845 120.005 54.2089 118.364C64.9719 99.2581 77.9208 81.1187 90.1412 62.948C90.9274 61.779 105.683 39.7129 109.755 34.5396C115.363 27.4163 101.221 50.5316 97.059 58.5822C88.1565 75.8016 79.6287 93.4983 73.1313 111.785C71.7899 115.56 69.389 119.33 69.7538 123.318C70.4615 131.059 82.0841 113.63 87.0484 107.642C99.8638 92.1829 111.459 75.7322 124.486 60.4504C127.237 57.2242 129.265 51.7537 133.5 51.475C136.379 51.2856 132.873 57.2548 131.893 59.963C129.064 67.7791 125.421 75.2771 122.126 82.9091C116.765 95.3287 107.466 116.215 101.963 129.309C100.127 133.675 98.0182 137.953 96.6521 142.488C94.4996 149.632 98.2519 147.562 102.553 143.828C111.318 136.217 126.733 118.376 133.276 110.526C143.827 97.8663 172.129 57.3452 163.328 71.2736C150.599 91.4205 137.027 111.078 124.12 131.116C119.475 138.328 114.901 145.586 110.264 152.803C107.63 156.903 105.136 161.098 102.308 165.068C101.801 165.78 100.411 167.642 100.314 166.774C100.108 164.922 101.222 163.149 101.902 161.413C103.776 156.622 105.863 151.915 107.965 147.219C119.446 121.565 132.272 96.5562 144.06 71.0502C147.123 64.423 153.302 51.4573 143.816 65.9737C127.565 90.8413 112.948 116.928 98.6664 142.955C95.584 148.572 92.7458 154.321 89.6121 159.91C88.7615 161.427 86.9097 165.984 86.7229 164.256C86.4067 161.329 88.2257 158.558 89.1645 155.768C90.9071 150.588 106.104 108.349 106.907 106.099C112.88 89.3523 121.387 71.0094 124.832 53.3432C125.01 52.4326 125.34 50.2153 124.486 50.5815C122.393 51.4794 121.229 53.773 119.766 55.516C116.735 59.1257 113.871 62.8727 111.017 66.6235C96.7229 85.4109 101.204 80.2334 86.9671 99.2759C86.6614 99.6847 69.8352 126.229 75.5526 106.769C78.4849 96.7884 86.5034 75.6638 89.6528 67.2327C92.2754 60.2118 94.9918 53.226 97.588 46.1954C99.1088 42.0774 100.745 37.9935 102.003 33.7883C102.353 32.6209 103.606 30.2594 102.39 30.1535C100.794 30.0145 100.041 32.3344 98.9716 33.5243C97.0812 35.6273 95.2724 37.8044 93.5187 40.0223C84.3596 51.6055 75.3415 63.6886 67.6377 76.2892C59.4951 89.6075 61.6864 92.1573 74.5556 81.6095C89.6725 69.2193 103.45 54.9221 116.999 40.8752C119.175 38.6186 125.316 31.8029 124.079 34.6818C116.648 51.9881 105.778 68.4575 96.8149 84.9803C92.8369 92.3137 89.7626 100.184 85.0545 107.073C84.497 107.889 85.5945 105.173 85.8887 104.231C97.5052 66.9981 77.4555 131.956 94.9023 75.1318C96.7327 69.1701 104.585 45.6716 105.035 37.7886C105.189 35.0947 105.36 30.5939 102.715 30.0317C98.5888 29.1543 94.5402 32.5194 90.9957 34.8036C84.3007 39.1182 78.2032 44.3298 72.2767 49.6475C55.8729 64.3664 42.9877 83.5988 26.1711 97.6514C18.2868 104.24 32.7224 78.1369 37.199 68.8978C61.3722 19.0081 35.0223 74.2257 57.4643 28.7321C68.4101 6.5432 51.2408 31.0983 49.4681 33.3822C37.7178 48.5205 6.20174 96.5519 15.7536 79.9443C30.0607 55.069 46.6039 31.4834 60.5367 6.37489C72.0932 -14.4514 31.7387 44.6844 21.2269 66.0549C20.8981 66.7233 20.6257 68.7559 21.2065 68.2886C24.3005 65.7997 26.693 62.5462 29.3045 59.5569C42.7281 44.1914 55.0329 27.9218 68.1667 12.3246C72.1256 7.62321 74.7531 4.39338 71.0966 12.2028C61.8405 31.972 51.0049 51.0763 40.9835 70.4613C38.7639 74.7548 36.2826 78.9322 34.4319 83.3964C34.144 84.0909 35.7483 82.5952 36.202 81.9953C45.82 69.2778 54.3284 55.6734 63.7311 42.784C67.3322 37.8475 71.5822 30.7079 76.1833 26.3156C77.604 24.9594 74.7843 29.985 73.9859 31.778" stroke="#CDCEF8" stroke-width="3"/>
<path d="M110.834 88.8333H87.8337V111.833H80.167V88.8333H57.167V81.1666H80.167V58.1666H87.8337V81.1666H110.834V88.8333Z" fill="#6366F1"/>
</svg>
