<svg width="152" height="150" viewBox="0 0 152 150" fill="none" xmlns="http://www.w3.org/2000/svg">
<g filter="url(#filter0_d)">
<path d="M99.8107 9.2209C69.1089 21.2068 37.5769 32.4475 6.12451 41.4655C6.11024 41.4696 3.09689 42.23 3.89546 41.8947C15.8555 36.8727 28.3928 33.1568 40.5905 29.0045C56.9675 23.4294 73.3006 17.9734 90.0988 14.3594C101.647 11.8749 114.078 8.78901 125.853 8.67357C128.378 8.64882 128.027 9.56193 125.98 11.1754C116.837 18.3816 105.34 22.5975 94.9178 26.7316C68.1813 37.3374 40.1791 43.8671 13.7323 55.3854C13.5906 55.4471 5.16393 59.1988 9.17062 57.4903C21.329 52.3056 33.7248 47.7282 46.1351 43.3962C60.8777 38.2501 75.7789 33.9172 90.8304 30.174C95.3518 29.0496 108.295 24.653 104.524 27.6621C97.9313 32.9232 89.4558 36.4492 82.1191 40.0844C71.0007 45.5934 59.7383 50.7402 48.7301 56.5268C43.9229 59.0538 39.2793 61.8424 34.6992 64.8359C33.7697 65.4434 32.5253 66.13 34.544 65.2396C43.2749 61.3888 51.8953 57.2176 60.6167 53.3373C79.1057 45.1111 134.92 22.8644 117.707 34.0085C103.788 43.0199 88.3099 49.3231 73.5626 56.3624C57.1463 64.1984 41.0637 73.0599 24.5206 80.5418C23.1245 81.1732 19.1684 82.8246 20.1013 81.5259C25.3969 74.1541 34.1429 67.9919 41.1138 62.8802C55.4138 52.3941 70.7566 43.2898 86.3239 35.3412C95.3106 30.7525 105.644 25.1628 115.424 22.926C117.056 22.5529 112.398 24.5026 110.874 25.2653C104.538 28.4363 99.8359 30.7752 93.3148 33.9004C78.8842 40.8165 64.3854 47.4918 50.1045 54.7973C42.9293 58.4678 35.8313 62.3385 28.6254 65.9341C23.9783 68.2529 37.6357 60.6414 42.2184 58.1682C56.2757 50.5815 70.4907 43.3373 84.9759 36.8267C92.1094 33.6205 97.393 31.3454 104.536 28.8033C107.095 27.8923 113.152 23.8875 112.356 26.6694C112.098 27.5722 110.841 27.6474 110.035 28.0202C106.434 29.6857 102.784 31.2131 99.1472 32.7787C89.0586 37.1223 67.6849 46.3656 57.6166 49.9025C44.536 54.4976 44.7262 53.2947 55.7769 46.072C63.9122 40.7548 73.2003 37.5234 80.7766 31.289C83.4368 29.1 74.2573 32.6026 70.9738 32.7387C64.8015 32.9947 70.8262 30.8934 70.0938 29.4448C69.7971 28.8578 42.0959 39.3816 59.1392 31.466C61.5435 30.3493 71.1109 25.5478 75.435 26.6339C82.6103 28.4361 65.1749 30.5804 78.7575 29.2836C84.1317 28.7705 93.8447 23.1721 94.8991 28.8296C95.5102 32.1084 91.9213 34.9919 89.6964 37.4443C85.2829 42.3092 79.7839 45.8824 75.193 50.551C72.7158 53.0702 65.8688 56.9181 68.5648 58.9337C72.4118 61.8099 78.0799 57.5656 82.7109 56.1717C91.3986 53.5569 99.8448 49.9788 108.426 46.9361C114.249 44.8717 119.95 42.2195 125.923 40.8507C126.553 40.7064 126.483 42.5233 125.947 42.9209C120.419 47.0194 89.5927 64.2657 86.8716 65.7701C75.6323 71.9836 64.7803 79.6257 52.7212 83.4054C45.4664 85.6792 65.6828 74.753 72.4594 71.0486C85.2026 64.0826 96.8855 58.2799 109.907 52.256C111.709 51.422 117.114 48.9553 115.394 49.9844C112.405 51.7731 109.199 53.0743 106.075 54.5488C84.2938 64.8285 62.4414 75.6973 40.1052 84.3814C38.8853 84.8557 35.2254 85.9503 36.3039 85.1581C39.6832 82.676 43.5012 81.0002 47.2032 79.1679C63.9069 70.9003 78.4158 64.7702 95.8719 57.9982C103.992 54.8479 112.102 51.601 120.391 49.0912C123.403 48.1791 130.459 44.5056 129.649 47.7711C128.5 52.4023 122.519 53.6694 118.654 56.0905C109.149 62.0451 99.3383 67.3843 89.6005 72.8583C78.123 79.3103 50.1702 94.8179 36.109 101.351C23.6742 107.129 31.0013 101.588 36.989 97.5268C49.1548 89.276 62.789 81.6405 75.5641 74.8383C81.2682 71.8011 87.0015 68.8151 92.8532 66.1529C94.2261 65.5283 98.2233 63.8545 97.1718 65.0079C94.8303 67.5764 91.5809 68.9275 88.6942 70.715C73.7973 79.94 27.9917 105.272 43.4285 97.2174C56.3131 90.4945 56.7443 89.8242 71.5958 82.5556C73.464 81.6412 93.8944 71.6827 98.8452 70.8212C103.954 69.9321 90.9961 78.4476 86.5232 81.3837C75.516 88.6091 57.5481 99.3952 46.3155 106.333C37.4932 111.783 33.1071 114.348 44.1806 108.484C62.1406 98.9749 80.1014 87.4119 99.0065 80.3735C115.429 74.2593 69.0753 99.8369 53.8336 109.022C36.741 119.322 50.8015 110.898 51.9372 110.231C65.3127 102.372 71.0515 98.9951 85.4161 91.1303C101.057 82.5667 98.9285 83.8858 110.973 77.7061C116.191 75.029 100.485 82.9298 95.2741 85.6242C81.1238 92.9413 76.2261 95.5657 62.7736 103.163C60.5733 104.406 58.4124 105.733 56.2202 106.993C49.9143 110.618 68.7347 99.5372 75.0368 95.904C84.5655 90.4107 100.471 81.3851 110.421 76.4645C113.478 74.9527 116.477 72.7285 119.79 72.4722C121.213 72.3621 118.05 75.0491 116.874 75.9653C111.053 80.5004 79.8459 101.723 76.4688 104.067C66.2093 111.188 55.1895 117.28 46.0326 126.015C41.3274 130.504 57.5361 120.757 63.1407 117.765C73.8871 112.03 95.6543 100.219 106.699 94.7974C110.298 93.0304 113.792 90.4328 117.683 90.0059C119.294 89.8291 115.681 92.8869 114.368 93.9559C95.8882 109.008 75.8467 122.034 56.6714 135.989C45.8084 143.895 49.0941 141.547 56.5183 136.663C70.8309 127.249 74.6364 124.606 89.896 115.241C98.6753 109.853 108.002 105.458 116.305 99.2195C116.858 98.8042 117.859 97.1445 117.204 97.2713C113.581 97.9724 110.125 99.6056 106.68 101.082C90.3732 108.069 43.6363 133.371 60.6193 128.98C67.8949 127.099 96.6909 113.965 99.7674 112.613C106.891 109.481 134.82 104.099 141.977 101.065" stroke="#F9DFB2" stroke-width="3" shape-rendering="crispEdges"/>
</g>
<path d="M68.7261 83.8238C68.3421 83.8238 68.0061 83.7038 67.7181 83.4638C67.4301 83.1758 67.2861 82.8398 67.2861 82.4558V80.7998C67.6221 78.7838 68.3661 76.9838 69.5181 75.3998C70.7181 73.8158 72.3501 72.0158 74.4141 69.9998C75.9501 68.4638 77.1021 67.2158 77.8701 66.2558C78.6381 65.2478 79.0461 64.2398 79.0941 63.2318C79.2381 61.7438 78.7341 60.5678 77.5821 59.7038C76.4781 58.7918 75.1341 58.3358 73.5501 58.3358C69.8061 58.3358 67.5021 60.1358 66.6381 63.7358C66.2541 64.8878 65.5101 65.4638 64.4061 65.4638H55.6221C55.0941 65.4638 54.6621 65.2958 54.3261 64.9598C54.0381 64.5758 53.8941 64.0958 53.8941 63.5198C53.9901 60.8798 54.8301 58.3838 56.4141 56.0318C57.9981 53.6318 60.3261 51.6878 63.3981 50.1998C66.4701 48.7118 70.1421 47.9678 74.4141 47.9678C78.7821 47.9678 82.3341 48.6638 85.0701 50.0558C87.8061 51.3998 89.7501 53.0798 90.9021 55.0958C92.1021 57.0638 92.7021 59.0798 92.7021 61.1438C92.7021 63.4958 92.1501 65.5598 91.0461 67.3358C89.9901 69.1118 88.4061 71.1518 86.2941 73.4558C84.9981 74.8478 83.9661 76.0238 83.1981 76.9838C82.4781 77.9438 81.9261 78.9518 81.5421 80.0078C81.3981 80.4398 81.2301 81.0878 81.0381 81.9518C80.6541 82.6238 80.3181 83.1038 80.0301 83.3918C79.7421 83.6798 79.3341 83.8238 78.8061 83.8238H68.7261ZM68.8701 99.0878C68.3421 99.0878 67.9101 98.9198 67.5741 98.5838C67.2381 98.2478 67.0701 97.8158 67.0701 97.2878V89.0798C67.0701 88.5518 67.2381 88.1198 67.5741 87.7838C67.9101 87.4478 68.3421 87.2798 68.8701 87.2798H78.0861C78.6141 87.2798 79.0461 87.4478 79.3821 87.7838C79.7661 88.1198 79.9581 88.5518 79.9581 89.0798V97.2878C79.9581 97.8158 79.7661 98.2478 79.3821 98.5838C79.0461 98.9198 78.6141 99.0878 78.0861 99.0878H68.8701Z" fill="#F59E0B"/>
<defs>
<filter id="filter0_d" x="0.262695" y="5.17163" width="144.303" height="139.472" filterUnits="userSpaceOnUse" color-interpolation-filters="sRGB">
<feFlood flood-opacity="0" result="BackgroundImageFix"/>
<feColorMatrix in="SourceAlpha" type="matrix" values="0 0 0 0 0 0 0 0 0 0 0 0 0 0 0 0 0 0 127 0" result="hardAlpha"/>
<feOffset/>
<feGaussianBlur stdDeviation="1"/>
<feComposite in2="hardAlpha" operator="out"/>
<feColorMatrix type="matrix" values="0 0 0 0 0 0 0 0 0 0 0 0 0 0 0 0 0 0 0.25 0"/>
<feBlend mode="normal" in2="BackgroundImageFix" result="effect1_dropShadow"/>
<feBlend mode="normal" in="SourceGraphic" in2="effect1_dropShadow" result="shape"/>
</filter>
</defs>
</svg>
